<svg id="Layer_1" data-name="Layer 1" xmlns="http://www.w3.org/2000/svg" viewBox="0 0 361.08 300"><defs><style>.cls-1,.cls-5{fill:#e52628;}.cls-1,.cls-3,.cls-4{fill-rule:evenodd;}.cls-2{fill:#091c1e;}.cls-3{fill:#fff;}.cls-4{fill:#fbea26;}</style></defs><title>National-Rural-Health-Mission</title><path class="cls-1" d="M180.53,35.17c79.32,0,143.65,56.69,143.65,126.57,0,29.09-11.16,55.92-29.91,77.3H66.81c-18.76-21.38-29.92-48.14-29.92-77.3C36.89,91.85,101.22,35.17,180.53,35.17Z"/><path class="cls-2" d="M41.48,219.53l2.35,4.61-23.95,12.2-2.27-4.44,10.26-17.69L12.57,222l-2.34-4.59,24-12.23,2.22,4.34L25.73,227.58l15.75-8Zm-21.95-29-7.64,5.17,9.19,1-1.55-6.23Zm6.83,6.78,6,.66,1.32,5.29L5,199.68l-1.09-4.41,23.59-16.48,1.36,5.47-4.95,3.42,2.42,9.67ZM.28,166.7,5,166.37l.36,5,22.06-1.54.36,5.22L5.71,176.62l.35,5L1.35,182,.3,166.7Zm26.57-5.22L0,160.54l.18-5.25,26.87.93-.18,5.26Zm-12.74-18a8.83,8.83,0,0,0,3.28.11,8.58,8.58,0,0,0,3-1.09A9,9,0,0,0,23,140.21a7.61,7.61,0,0,0,1.39-3,7.89,7.89,0,0,0-1.23-6.32,8.76,8.76,0,0,0-5.63-3.64,8,8,0,0,0-6.24,1.14,7.91,7.91,0,0,0-3.57,5.16,8.18,8.18,0,0,0,1.13,6.35,7.89,7.89,0,0,0,5.23,3.63Zm-1,5.44a14.7,14.7,0,0,1-4-1.45A13.16,13.16,0,0,1,5.94,145a13.61,13.61,0,0,1-3.34-5.82,13.94,13.94,0,0,1-.18-6.76,13.2,13.2,0,0,1,2.08-4.84,14,14,0,0,1,8.9-5.78,13.54,13.54,0,0,1,5.38.07,14.63,14.63,0,0,1,5.08,2.06,13.22,13.22,0,0,1,3.79,3.77,13.51,13.51,0,0,1,2.14,5.08,13.76,13.76,0,0,1,0,5.5,14.14,14.14,0,0,1-2.21,5.19,13,13,0,0,1-4,3.72,13.94,13.94,0,0,1-5,1.87,14.8,14.8,0,0,1-5.39-.16ZM35.67,116.2l-2.14,4.73L9.16,109.57l2.1-4.51,20.27-2.82L16,95l2.17-4.67L42.5,101.68l-2.06,4.42-20.76,2.68,16,7.47Zm8.22-35.38L35.1,78.18l5,7.8Zm-1,9.57,3.24,5-3.25,4.47L27.69,75.32l2.73-3.62,27.66,8-3.39,4.51-5.78-1.71-6,8ZM69.2,68.2l-9.7,9.61-19-19,3.68-3.68L59.85,70.79l6-6Zm8.24-23.7,1-.65a8.48,8.48,0,0,0,3.38-3.66,3.85,3.85,0,0,0-.52-3.72,3.65,3.65,0,0,0-2.92-1.85,7.35,7.35,0,0,0-4.15,1.59l-1.71,1.08,4.87,7.21ZM85.16,56,80.8,58.89l-15-22.28L71.05,33a33,33,0,0,1,3.84-2.37,9,9,0,0,1,2.49-.84,8,8,0,0,1,4.57.52,8.29,8.29,0,0,1,3.51,3.07A8.17,8.17,0,0,1,87,38.76a7.52,7.52,0,0,1-2.33,5L96.07,48.6l-5.2,3.51L78.13,45.6l7,10.35Zm2.63-33.42,4.72-2.31,6.78,13.94a11.47,11.47,0,0,0,2.91,4.2,3.14,3.14,0,0,0,4.31-1.11,2.92,2.92,0,0,0,.41-1.18,11.42,11.42,0,0,0-1.52-4.89L98.6,17.24l4.73-2.31,7.49,15.35a22.74,22.74,0,0,1,1.58,4,7.08,7.08,0,0,1,.14,2.71A8,8,0,0,1,111,40.7a9.65,9.65,0,0,1-3.45,2.66,9.54,9.54,0,0,1-4.22,1.08,7.91,7.91,0,0,1-3.91-1.12,7,7,0,0,1-2-1.7,21.17,21.17,0,0,1-2.19-3.77L87.74,22.51Zm33.57-.42,1.12-.32a8.38,8.38,0,0,0,4.34-2.43,3.84,3.84,0,0,0,.65-3.7A3.6,3.6,0,0,0,125.28,13a7.32,7.32,0,0,0-4.44.21l-1.88.54Zm3.81,13.28-5,1.46L112.74,11l6.14-1.75a35.18,35.18,0,0,1,4.41-1,9.73,9.73,0,0,1,2.64,0,8.09,8.09,0,0,1,4.18,1.92,9,9,0,0,1,2.12,9.48,7.63,7.63,0,0,1-3.73,3.94l9.33,8.18-6,1.73-10.11-10,3.44,12ZM152,18.14,147.61,10l-2,9Zm-7.46,6.09-1.28,5.87-5.4.75,6.59-28.08,4.5-.63,13.93,25.19-5.59.78-2.88-5.28-9.87,1.39Zm34.22,2.2-13.62.71L163.7.29,168.91,0l1.15,22.12,8.43-.44ZM200,16.4l-1.15,10.87-5.29-.54L196.38,0l5.21.58L200.46,11.4l8.59.91,1.14-10.83,5.23.55-2.8,26.7-5.23-.55,1.22-10.87-8.59-.9Zm31.8,17.54-14.17-3.5,6.51-26.08,14,3.52-1.14,4.59-9-2.26-1.36,5.94,9,2.25-1.12,4.52-9-2.26-1.6,6.45,9,2.26L231.83,34Zm19.93-3.89.13-9.22-6.13,6.92,6,2.3Zm-9.48,1.7-4,4.52-5.09-2,19.38-21.35,4.26,1.71V43.41l-5.26-2,0-6-9.32-3.57Zm27.91,19.84L258.25,45l13-23.51L275.84,24,265.12,43.37l7.38,4.09-2.3,4.13Zm28.41-12.9-2.65,3.93-4.19-2.92L279.35,58.06,275,55.13l12.39-18.36-4.2-2.84L285.84,30ZM297.2,58.6l-7.35,8.08-3.91-3.52,18-20,4,3.54-7.28,8.09L307,60.6l7.28-8.1L318.23,56l-18,20-3.91-3.52,7.31-8.12-6.42-5.79Zm15.89,34.82L310.4,89l23.07-13.84,3.58,6L323.81,97l20.27-4.23,3.59,6L324.6,112.59l-2.66-4.5,16.82-9.89-20.23,4.23-2-3.41,13.22-15.89L313.14,93.37Zm12.55,24.47,24.92-10,2,4.87-24.93,10-2-4.87Zm11.68,6.59,1,4.69-.39.08a4,4,0,0,0-2.47,1.43,3,3,0,0,0-.51,2.52,3.37,3.37,0,0,0,1.46,2.26,3.54,3.54,0,0,0,2.7.37c1.7-.36,2.65-1.84,2.87-4.42a6.08,6.08,0,0,1,.08-.8,9.72,9.72,0,0,1,1.75-5.12,6.88,6.88,0,0,1,4.14-2.43,8.74,8.74,0,0,1,6.38.78,7.2,7.2,0,0,1,3.4,5,6.87,6.87,0,0,1-.91,5.51,8.73,8.73,0,0,1-5.14,3.3l-1-4.65.21-.05a2.89,2.89,0,0,0,1.88-1.19,2.69,2.69,0,0,0,.36-2.15,2.66,2.66,0,0,0-1.22-1.83,3.22,3.22,0,0,0-2.32-.27,3,3,0,0,0-1,.38,2.37,2.37,0,0,0-.7.64,7.34,7.34,0,0,0-.83,3.5,13.77,13.77,0,0,1-.13,1.77,8.21,8.21,0,0,1-1.79,4.56A7.29,7.29,0,0,1,341,140.6a9.53,9.53,0,0,1-7-.87,7.89,7.89,0,0,1-3.74-5.48,7.46,7.46,0,0,1,1.17-6.18,9.37,9.37,0,0,1,5.83-3.56Zm4,19.52.43,4.78h-.38a4,4,0,0,0-2.64,1.12,2.92,2.92,0,0,0-.81,2.44,3.37,3.37,0,0,0,1.16,2.41,3.56,3.56,0,0,0,2.65.7q2.6-.22,3.39-4l.17-.77a9.76,9.76,0,0,1,2.36-4.87,6.83,6.83,0,0,1,4.41-1.91,8.65,8.65,0,0,1,6.23,1.56A7.15,7.15,0,0,1,361,150.8a6.86,6.86,0,0,1-1.58,5.37,8.82,8.82,0,0,1-5.5,2.65l-.41-4.75h.22a2.84,2.84,0,0,0,2-.95,2.71,2.71,0,0,0,.62-2.1,2.62,2.62,0,0,0-1-2,3.09,3.09,0,0,0-2.26-.55,2.73,2.73,0,0,0-1,.25,2.18,2.18,0,0,0-.77.55,7.3,7.3,0,0,0-1.24,3.37c-.13.75-.25,1.33-.35,1.74a8.35,8.35,0,0,1-2.33,4.31,7.29,7.29,0,0,1-4.36,1.7,9.51,9.51,0,0,1-6.84-1.71,7.88,7.88,0,0,1-3-5.89,7.47,7.47,0,0,1,1.92-6,9.41,9.41,0,0,1,6.22-2.82Zm-7.18,21.67,26.89.47-.1,5.26L334,170.93ZM346,183a8.82,8.82,0,0,0-3.28-.05,8.53,8.53,0,0,0-3,1.14,8.78,8.78,0,0,0-2.57,2.36,7.56,7.56,0,0,0-1.33,3,7.83,7.83,0,0,0,1.33,6.29,8.67,8.67,0,0,0,5.69,3.53,8,8,0,0,0,6.21-1.23,7.83,7.83,0,0,0,3.49-5.22,8.17,8.17,0,0,0-1.23-6.34A7.93,7.93,0,0,0,346,183Zm.88-5.45a14.2,14.2,0,0,1,4,1.37,13.46,13.46,0,0,1,3.28,2.42,13.76,13.76,0,0,1,3.73,12.53,13.06,13.06,0,0,1-2,4.86,14,14,0,0,1-8.79,5.94,13.54,13.54,0,0,1-5.38,0,14.54,14.54,0,0,1-5.12-2,12.82,12.82,0,0,1-3.84-3.71,13.19,13.19,0,0,1-2.24-5,13.54,13.54,0,0,1,0-5.49,13.8,13.8,0,0,1,2.11-5.23,13.1,13.1,0,0,1,4-3.8,14,14,0,0,1,4.94-1.95,14.42,14.42,0,0,1,5.4.07ZM324.1,210.8l2.35-4.61L350.4,218.4l-2.27,4.44L327.78,225l15.31,7.8-2.34,4.59L316.8,225.13l2.21-4.34,20.85-2-15.76-8Z"/><path class="cls-3" d="M128.9,90.61c7.65,0,13.85,7,13.85,15.74s-6.2,15.76-13.85,15.76-13.85-7-13.85-15.76S121.25,90.61,128.9,90.61ZM88.26,157.19h0a5.83,5.83,0,0,0,8.15-.79l18.41-22.07v-8c-.14-.14-.29-.27-.44-.4h0a5.83,5.83,0,0,0-8.16.78L87.54,149a5.78,5.78,0,0,0,.68,8.14Zm80.36-.77h0a5.82,5.82,0,0,1-8.15-.79l-18.64-22.31a5.71,5.71,0,0,1-1.14-2.13V128a5.7,5.7,0,0,1,1.82-2.79h0a5.82,5.82,0,0,1,8.16.79l18.65,22.3a5.79,5.79,0,0,1-.7,8.16Zm-56.88-14.25,5.7-6.65v-8.46h20.62v6.77l6.5,8.34v28.49a5,5,0,0,1-4.92,4.93h-23a5,5,0,0,1-4.92-4.93V142.17Zm6.19,38.19h0a5.32,5.32,0,0,1,5.31,5.3V220.9a5.33,5.33,0,0,1-5.31,5.31h0a5.33,5.33,0,0,1-5.32-5.31V185.66a5.33,5.33,0,0,1,5.32-5.3Zm20.72,0h0a5.31,5.31,0,0,1,5.3,5.3V220.9a5.31,5.31,0,0,1-5.3,5.31h0a5.32,5.32,0,0,1-5.32-5.31V185.66a5.33,5.33,0,0,1,5.32-5.3ZM241,99.87c7.1,0,12.85,6.54,12.85,14.62S248.08,129.1,241,129.1s-12.86-6.54-12.86-14.61S233.89,99.87,241,99.87Zm-30.25,62.69h0a5,5,0,0,0,6.93-1.16l16.45-22.65a5,5,0,0,0-1.07-6.93h0A5,5,0,0,0,226.1,133l-16.49,22.7a4.94,4.94,0,0,0,1.07,6.91h0Zm62.41-.6h0a5.32,5.32,0,0,1-7.16-.9l-17.9-21.55a4.68,4.68,0,0,1,.52-6.6l.25-.2h0a5.3,5.3,0,0,1,7.15.89l17.91,21.56a4.68,4.68,0,0,1-.52,6.6Zm-28-24,1,2.82,18,52.26c.95,2.72-2.36,5.24-5.25,5.24H223.38c-2.89,0-6.2-2.52-5.26-5.24L235.79,142l1.4-4c2.68-7.79,5-8.45,8,0Zm-14.29,64.08h0a5.15,5.15,0,0,1,5.13,5.13v15a5.14,5.14,0,0,1-5.13,5.14h0a5.15,5.15,0,0,1-5.14-5.14v-15a5.16,5.16,0,0,1,5.14-5.14Zm20.16,0h0a5.16,5.16,0,0,1,5.13,5.13v15a5.16,5.16,0,0,1-5.13,5.14h0a5.15,5.15,0,0,1-5.14-5.14v-15a5.16,5.16,0,0,1,5.14-5.14Zm-61.46-26.5.56,1.63,12.78,30.09c.66,1.57-1.13,3-2.67,3H174.8c-1.84,0-4.23-1.52-3.57-3l12.9-29.4.8-2.32c1.56-4.48,2.91-4.86,4.59,0Zm-1.43-20.69c3.76,0,6.82,3.57,6.82,8s-3.06,8-6.82,8-6.83-3.57-6.83-8S184.36,154.87,188.13,154.87Zm-5.67,57.33h0a3,3,0,0,1,3,3v8.73a3,3,0,0,1-3,3h0a3,3,0,0,1-3-3v-8.73A3,3,0,0,1,182.46,212.2Zm10.47,0h0a3,3,0,0,1,3,3v8.73a3,3,0,0,1-3,3h0a3,3,0,0,1-3-3v-8.73A3,3,0,0,1,192.93,212.2Zm19.61-47.49c-.8,8-8,14.64-17.81,16.76l-3.1-7c7.07-1,12.6-5,13.85-10l7,.22Zm-32.65,16.4c-9.62-2.58-16.53-9.61-16.53-17.89a15,15,0,0,1,.29-2.91l6.73.41a8.69,8.69,0,0,0-.15,1.61c0,5.47,5.12,10.12,12.22,11.74l-2.56,7Z"/><path class="cls-4" d="M181.73,53.74a9.68,9.68,0,0,1,3,.73l2.22-3.85-1.52,4.12a10.5,10.5,0,0,1,2,1.34l6.22-5.2-5.22,6.22A9.91,9.91,0,0,1,190,59.53l4.25-1.3-4,2a9.5,9.5,0,0,1,.55,2.47l10.3.91-10.3.91a10.25,10.25,0,0,1-.56,2.51l3.95,2-4.22-1.26a10,10,0,0,1-1.55,2.4l5.22,6.21-6.22-5.2a10.07,10.07,0,0,1-2.69,1.66l1.19,4.29-1.92-4a9.86,9.86,0,0,1-2.22.47l-.9,10.3-.91-10.3a9.63,9.63,0,0,1-2.94-.74l-2.22,3.85,1.51-4.18a10,10,0,0,1-2-1.33L168,76.39l5.21-6.21a10.12,10.12,0,0,1-1.56-2.44l-4.2,1.34,3.95-2a10.49,10.49,0,0,1-.54-2.47l-10.3-.91,10.3-.91a10.25,10.25,0,0,1,.56-2.51l-4-2,4.24,1.31a10,10,0,0,1,1.55-2.4L168.09,51l6.22,5.2A10.07,10.07,0,0,1,177,54.5l-1.18-4.28,1.9,4a9.85,9.85,0,0,1,2.22-.46l.91-10.3.9,10.3Z"/><path class="cls-2" d="M75,253.41h-1.7v4a3.57,3.57,0,0,1-.21,1.2,2.55,2.55,0,0,1-.68,1.06,3.32,3.32,0,0,1-2.31.71l.62,1.14.4.71c.14.23.31.51.51.82.34.51.8,1.15,1.4,1.91a14.13,14.13,0,0,0,1,1.17l-1.67,1.7-.8-1.13-1.42-2.09q-.84-1.28-1.65-2.7l-.75-1.38c-.29-.54-.6-1.13-.94-1.75l-1-1.94,1.76-1.39a3.19,3.19,0,0,0,.33.84,5.7,5.7,0,0,0,.93,1.35,1.78,1.78,0,0,0,1.33.63,1,1,0,0,0,.47-.12.76.76,0,0,0,.29-.37,2.32,2.32,0,0,0,.17-.78v-3.64h-7.2V251.2H75v2.21Zm4.59,0H78.23v14.31H76V253.41H73.29v-2.18h6.29Zm8,8.81a3.54,3.54,0,0,1-2.34.88,3.45,3.45,0,0,1-1.94-.6,4.18,4.18,0,0,1-1.47-1.65,5,5,0,0,1-.56-2.34v-5.1h-2.3v-2.18h6.59v2.18h-2l4,5.34v3.47Zm-.46-2.15-3.6-4.74v3.58a2.06,2.06,0,0,0,.25,1,1.84,1.84,0,0,0,.67.74,1.78,1.78,0,0,0,.41.22,4.05,4.05,0,0,0,.5.12A2,2,0,0,0,87.08,260.07Zm11.11-6.66H95.86v4.76H91a1.43,1.43,0,0,0-1.24.7,3.2,3.2,0,0,0-.48,1.81,4.6,4.6,0,0,0,.54,2.15,4.82,4.82,0,0,0,1.44,1.67,3.08,3.08,0,0,0,1.75.65,2.81,2.81,0,0,0,1.66-.69,3.64,3.64,0,0,0,1.3-1.72l1.75,1.51a6.54,6.54,0,0,1-2,2.27,4.79,4.79,0,0,1-2.71.73,5.15,5.15,0,0,1-3-.93,6.62,6.62,0,0,1-2.18-2.54,7.31,7.31,0,0,1-.8-3.41,4.63,4.63,0,0,1,1-3.09,3.13,3.13,0,0,1,2.49-1.19h3.22v-2.68H84.87v-2.18H98.19v2.18Zm1.1,17.43L98,272.53l-3.38-4.25-3,4.25L90,271.2,93.6,267h1.6l4,3.81Zm4.5-17.43h-1.32v14.31h-2.3V253.41H97.5v-2.18h1.76a10.2,10.2,0,0,0-.44-1.73,12.47,12.47,0,0,0-1.25-2.79,2.27,2.27,0,0,0-1.86-1.32,2.22,2.22,0,0,0-1.53.61,2,2,0,0,0-.7,1.6A5.26,5.26,0,0,0,93.7,249a7.3,7.3,0,0,0,.55,1.25,2,2,0,0,0,.38.58H92.27l-.23-.36-.35-.68a5,5,0,0,1-.31-1,5.58,5.58,0,0,1-.14-1.35,4.19,4.19,0,0,1,.32-1.68,3.66,3.66,0,0,1,.92-1.31,4.19,4.19,0,0,1,3-1.11A3.47,3.47,0,0,1,98,244.47,8.64,8.64,0,0,1,99.82,247a18.51,18.51,0,0,1,1.09,2.75,12,12,0,0,1,.36,1.46h2.43v2.18Zm12.93,0h-1.38v14.31H113v-4a4.88,4.88,0,0,1-1.3.81,4,4,0,0,1-1.38.22,4.34,4.34,0,0,1-2.59-.87,5.69,5.69,0,0,1-1.94-2.35,7.56,7.56,0,0,1-.7-3.24,2,2,0,0,0,.73.13,2.58,2.58,0,0,0,1.62-.57,2.32,2.32,0,0,0,.71-1.91,3.84,3.84,0,0,0-.35-1.53,2.8,2.8,0,0,0-.6-1H103.1V251.2h13.59v2.18Zm-3.66,7v-7h-3.33a5.65,5.65,0,0,1,.7,3c0,2.13-.91,3.42-2.75,3.87a3.65,3.65,0,0,0,.91,1.71,3,3,0,0,0,.73.53,2,2,0,0,0,.83.19,2.59,2.59,0,0,0,1.3-.35A3.31,3.31,0,0,0,112,262a3.05,3.05,0,0,0,.48-.47,2.83,2.83,0,0,0,.58-1Zm23.82-7H135.5v14.31h-2.29V253.41H130v8c0,.91-.27,1.37-.83,1.37q-.33,0-1.2-.87a16.31,16.31,0,0,1-1.71-1.91,3.44,3.44,0,0,1-.8-1.35.77.77,0,0,1,.31-.71,1,1,0,0,1,.49-.23h1.41v-4.29h-4.47v-2.18h13.67v2.18Zm-3.16,9.49-5.63,4.76-1.31-2.16,6.94-4.45Zm9-9.49h-1.34v14.31h-2.29V253.41h-2.69v-2.18h6.3v2.18Zm12.88,0H154.3v14.31H152v-7.29h-3.9v1.92a1.73,1.73,0,0,1-.16.67.5.5,0,0,1-.55.39c-.2,0-.56-.3-1.1-.91a15.37,15.37,0,0,1-1.49-2,4,4,0,0,1-.67-1.39.63.63,0,0,1,.32-.63,1.85,1.85,0,0,1,.29-.13.69.69,0,0,1,.24,0h.9v-4.88H142.1v-2.18h13.53v2.18ZM152,258.34v-4.88h-3.9v4.88Zm9.27-4.88H160v14.31h-2.3V253.41H155v-2.18h1.77a11.24,11.24,0,0,0-.44-1.73,12.07,12.07,0,0,0-1.26-2.79,2.07,2.07,0,0,0-2.66-1.19,2.15,2.15,0,0,0-.74.48,2.1,2.1,0,0,0-.68,1.6,4.58,4.58,0,0,0,.22,1.42,6.6,6.6,0,0,0,.55,1.25,2,2,0,0,0,.38.58h-2.31l-.23-.36-.35-.68a5.06,5.06,0,0,1-.32-1,5.62,5.62,0,0,1-.13-1.35,4,4,0,0,1,.32-1.68,3.66,3.66,0,0,1,.92-1.31,4.13,4.13,0,0,1,3-1.11,3.49,3.49,0,0,1,2.55,1.11,9,9,0,0,1,1.78,2.57,17.43,17.43,0,0,1,1.08,2.75,10.41,10.41,0,0,1,.37,1.46h2.43v2.18Zm9.56,0h-.45v6.08a3.83,3.83,0,0,1-.5,1.9,4.23,4.23,0,0,1-1.36,1.49,3.16,3.16,0,0,1-3.64,0,4.23,4.23,0,0,1-1.36-1.52,3.72,3.72,0,0,1-.51-1.84v-6.08h-2.4v-2.18h10.22v2.15Zm-2.75,6.09v-6.09h-2.76v6.09c0,1.16.48,1.75,1.43,1.75S168.09,260.71,168.09,259.55Zm8.39-6.09h-1.32v14.31h-2.29V253.41h-2.68v-2.18h6.33v2.18Zm18.8,6.7h-2.45l-1.17-2h3.62Zm-2-6.7h-1.72v4a2.86,2.86,0,0,1-.88,2.36,2.68,2.68,0,0,1-1,.46l-.77.16.64,1.15.93,1.52c.35.51.77,1.12,1.26,1.79l.76,1-1.79,1.63-.62-1-1.23-2c-.23-.38-.49-.81-.77-1.29s-.59-1-.79-1.37c-.53-.9-1.06-1.93-1.62-3.07a17.56,17.56,0,0,1-.81-1.8l1.71-1.36a6.39,6.39,0,0,0,.59,1.4c.38.81.76,1.2,1.13,1.2.61,0,.93-.42.93-1.27v-3.64H183v-2.18h10.33v2.29Zm11.64,0H203.6v14.31h-2.3v-4.22l-.24.23a2,2,0,0,1-.47.35,4,4,0,0,1-.73.33,3.36,3.36,0,0,1-.89.13,4,4,0,0,1-3.09-1.32,4.93,4.93,0,0,1-1.23-3.52,5.53,5.53,0,0,1,.5-2.34,4,4,0,0,1,1.4-1.69,3.27,3.27,0,0,1,1.94-.62,3.61,3.61,0,0,1,1.64.4l.24,2.2a2.64,2.64,0,0,0-.5-.38,2,2,0,0,0-1-.24,1.61,1.61,0,0,0-1.38.79,3.24,3.24,0,0,0-.54,1.94,3,3,0,0,0,.57,1.95,1.75,1.75,0,0,0,1.44.72,1.85,1.85,0,0,0,1.2-.4,3.24,3.24,0,0,0,.81-.88,2.85,2.85,0,0,0,.33-.68v-7.11h-8.7v-2.18H204.9v2.18Zm5.64,0h-1.32v14.31H207V253.41H204.3v-2.18h6.32v2.18Zm11.65,6.7h-2.46l-1.16-2h3.62Zm-2-6.7h-1.78v4a2.86,2.86,0,0,1-.87,2.36,2.68,2.68,0,0,1-1,.46l-.77.16.63,1.15.94,1.52c.34.51.77,1.12,1.27,1.79l.76,1-1.8,1.63-.62-1-1.23-2c-.23-.38-.49-.81-.77-1.29s-.59-1-.79-1.37c-.53-.9-1.06-1.93-1.61-3.07a18.33,18.33,0,0,1-.82-1.8l1.72-1.36a5.91,5.91,0,0,0,.58,1.4c.38.81.76,1.2,1.13,1.2.61,0,.92-.42.92-1.27v-3.64h-6.26v-2.18h10.33v2.18Zm10.56,9.36a5.75,5.75,0,0,1-4.48,2,4.94,4.94,0,0,1-3-.92,6.53,6.53,0,0,1-1.95-2.32,9.55,9.55,0,0,1-.93-2.9,4.47,4.47,0,0,0,2.1.39,3.67,3.67,0,0,0,1.53-.34,2.65,2.65,0,0,0,1.19-1.08,3.39,3.39,0,0,0,.46-1.86,3.82,3.82,0,0,0-.43-1.93,1.45,1.45,0,0,0-1.36-.77c-.79,0-1.17.42-1.17,1.27a1.13,1.13,0,0,0,.35.84,1.16,1.16,0,0,0,.74.34v1.78a3.71,3.71,0,0,1-1.36-.28,2.78,2.78,0,0,1-1.25-1,3.07,3.07,0,0,1-.52-1.88,3.17,3.17,0,0,1,.43-1.7,3.07,3.07,0,0,1,1.17-1.12,3.35,3.35,0,0,1,1.61-.41,3.38,3.38,0,0,1,2,.69,4.82,4.82,0,0,1,1.51,1.84A6,6,0,0,1,228,256a5.42,5.42,0,0,1-.6,2.53,4.9,4.9,0,0,1-1.6,1.84,3.56,3.56,0,0,1-2,.72,3.5,3.5,0,0,0,.79,1,2.47,2.47,0,0,0,1.78.61,3.19,3.19,0,0,0,1.65-.47,6.25,6.25,0,0,0,1.36-1.1,9,9,0,0,0,1-1.21,3,3,0,0,0,.4-.69v3.57Zm10.95-9.36h-1.35v14.31h-2.3v-4a4.84,4.84,0,0,1-1.32.81,3.92,3.92,0,0,1-1.36.22,4.4,4.4,0,0,1-2.61-.87,5.74,5.74,0,0,1-1.93-2.35,7.28,7.28,0,0,1-.7-3.24,2,2,0,0,0,.74.13,2.53,2.53,0,0,0,1.6-.57,2.26,2.26,0,0,0,.72-1.91,3.69,3.69,0,0,0-.36-1.53,2.64,2.64,0,0,0-.59-1h-4.13v-2.18h13.59v2.21Zm-3.65,7v-7h-3.28a5.65,5.65,0,0,1,.7,3q0,3.19-2.75,3.87a3.56,3.56,0,0,0,.91,1.71,3,3,0,0,0,.73.53,2,2,0,0,0,.83.19,2.52,2.52,0,0,0,1.29-.35,3,3,0,0,0,.56-.37,4.34,4.34,0,0,0,.49-.47,3.28,3.28,0,0,0,.58-1ZM264,250.74h-2.36a.83.83,0,0,1-.08-.12,9.23,9.23,0,0,0-.54-.77c-.22-.27-.44-.55-.67-.82s-.5-.55-.81-.86a9.49,9.49,0,0,0-2-1.57,4.62,4.62,0,0,0-2.29-.67,2.36,2.36,0,0,0-2,.88,3.78,3.78,0,0,0-.67,2.3v.66a3.76,3.76,0,0,0,.13.77q.09.42.12.51l.06.2h1.59v2.18h-1.23v14.31H251V253.41h-2.68v-2.18H251a1.38,1.38,0,0,1-.06-.26,3,3,0,0,0-.13-.54,7.4,7.4,0,0,1-.18-1.63,5.6,5.6,0,0,1,.59-2.63,4.09,4.09,0,0,1,1.67-1.75,5,5,0,0,1,1.17-.48,5.06,5.06,0,0,1,1.34-.15,6.16,6.16,0,0,1,3.89,1.53,21,21,0,0,1,1.75,1.52,13.71,13.71,0,0,1,1.39,1.56c.76,1,1.31,1.75,1.68,2.32Zm3.38,2.69h-1.32v14.31h-2.29v-7.29h-3.89v1.9a1.73,1.73,0,0,1-.16.67.5.5,0,0,1-.55.39c-.2,0-.56-.3-1.1-.91a15.37,15.37,0,0,1-1.49-2,4,4,0,0,1-.67-1.39.63.63,0,0,1,.32-.63,1.85,1.85,0,0,1,.29-.13.45.45,0,0,1,.23,0h.91v-4.88h-3.8v-2.18H267.4v2.18Zm-3.61,4.91v-4.88h-3.89v4.88Zm15.05-4.88h-2.73a8.24,8.24,0,0,1,.7,1.47,5,5,0,0,1,.23,1.58,7.76,7.76,0,0,1-.53,2.9,5.59,5.59,0,0,1-1.49,2.22,4.79,4.79,0,0,1-1.06.71,2.47,2.47,0,0,1-1.14.25l.56.6a11.1,11.1,0,0,0,.82.86l1.91,1.83-1.28,2.05-.69-.68L272.8,266l-1.36-1.43-1.63-1.91-1-1.27,1.45-1.78.86,1,.24.08a2.13,2.13,0,0,0,.44.07h.33a2.92,2.92,0,0,0,2.4-2.79,4.22,4.22,0,0,1-1.8.53,3.31,3.31,0,0,1-2.33-.9,3.38,3.38,0,0,1-.93-2.52,3.8,3.8,0,0,1,.35-1.59h-3v-2.18h12v2.18Zm-4.09,1.87a2.08,2.08,0,0,0-.22-.81,2.66,2.66,0,0,0-.69-.87,1.58,1.58,0,0,0-1-.37,1.11,1.11,0,0,0-.87.47,1.81,1.81,0,0,0-.37,1.14,1.6,1.6,0,0,0,.44,1.17,1.4,1.4,0,0,0,1.06.44,1.64,1.64,0,0,0,1-.35,1.94,1.94,0,0,0,.65-.82Zm9.61-1.88H283v14.31h-2.3V253.41h-2.67v-2.18h6.28v2.22Zm12.89,0h-1.36v14.31h-2.3V259.3h-4v2.18c0,.69-.23,1-.69,1-.23,0-.59-.31-1.11-.94-.25-.31-.48-.63-.7-1a9.4,9.4,0,0,1-.63-1,4,4,0,0,1-.61-1.48,1,1,0,0,1,.33-.89,1.07,1.07,0,0,1,.6-.22h6.86v-3.54H283.7v-2.18h13.54v2.22Z"/><path class="cls-5" d="M125.23,299.9H122.8l-.87-.76a10.45,10.45,0,0,1-1.5-1.82A13.08,13.08,0,0,1,119,294a14.54,14.54,0,0,1-.48-2.25,19.34,19.34,0,0,1,.38-7.15,14.4,14.4,0,0,1,1.28-3.4c.26-.47.51-.87.73-1.21a9.76,9.76,0,0,1,.66-.89l.82-.95,2.6-.07-.9.91a9.18,9.18,0,0,0-1.39,2,8.42,8.42,0,0,0-.64,1.44q-.32.9-.54,1.83a20.22,20.22,0,0,0-.5,4.78,22,22,0,0,0,.15,2.56,13.07,13.07,0,0,0,.45,2.24,12.73,12.73,0,0,0,1.25,3.22,9.56,9.56,0,0,0,1.45,1.9l.93.87Zm12.46-3.55-10.51-.06v-3a10.31,10.31,0,0,0,3.33-2.09,14.73,14.73,0,0,0,2.57-3,5.13,5.13,0,0,0,1-2.38,2,2,0,0,0-.72-1.73,3.65,3.65,0,0,0-2.09-.5,3.8,3.8,0,0,0-1.65.51,4.81,4.81,0,0,0-1.4,1l-.78-.59L128.7,282a6.48,6.48,0,0,1,1.52-.62,5.94,5.94,0,0,1,1.62-.3,6.44,6.44,0,0,1,2.52.5A4.23,4.23,0,0,1,137,285.7a5.94,5.94,0,0,1-.8,2.59,15.21,15.21,0,0,1-.91,1.49,14.35,14.35,0,0,1-1.2,1.48,16.32,16.32,0,0,1-1.3,1.33,10.85,10.85,0,0,1-1.34,1h6.18l.08,2.65Zm12.51-7a12.73,12.73,0,0,1-.49,3.58,5.68,5.68,0,0,1-1.67,2.72,4.39,4.39,0,0,1-3.06,1.06,4,4,0,0,1-2.82-1.08,6.73,6.73,0,0,1-1.74-2.77,11,11,0,0,1-.57-3.51,11.47,11.47,0,0,1,.55-3.49,6.35,6.35,0,0,1,1.71-2.77A4,4,0,0,1,145,282a4.41,4.41,0,0,1,3.07,1.06,5.72,5.72,0,0,1,1.66,2.7,12.84,12.84,0,0,1,.38,1.74,11.32,11.32,0,0,1,.14,1.84Zm-3,0a14.5,14.5,0,0,0-.4-3.83A1.77,1.77,0,0,0,145,284c-.81,0-1.38.53-1.7,1.6a11.21,11.21,0,0,0-.37,1.72,13.57,13.57,0,0,0-.13,2,11.22,11.22,0,0,0,.55,3.68c.37,1.06.92,1.59,1.67,1.59a1.54,1.54,0,0,0,1.28-.69A4.71,4.71,0,0,0,147,292a15,15,0,0,0,.21-2.67Zm14.86,0a12.39,12.39,0,0,1-.5,3.58,5.68,5.68,0,0,1-1.67,2.72,4.39,4.39,0,0,1-3.06,1.06,4,4,0,0,1-2.82-1.08,6.7,6.7,0,0,1-1.73-2.77,10.77,10.77,0,0,1-.58-3.51,11.48,11.48,0,0,1,.56-3.49,6.35,6.35,0,0,1,1.71-2.77,4,4,0,0,1,2.83-1.08,4.44,4.44,0,0,1,3.08,1.06,5.7,5.7,0,0,1,1.65,2.7,11.49,11.49,0,0,1,.38,1.74,11.32,11.32,0,0,1,.15,1.84Zm-3,0a14.93,14.93,0,0,0-.4-3.83,1.78,1.78,0,0,0-1.83-1.47c-.8,0-1.37.53-1.69,1.6a11.24,11.24,0,0,0-.38,1.72,15.07,15.07,0,0,0-.13,2,11.22,11.22,0,0,0,.56,3.68c.37,1.06.92,1.59,1.66,1.59a1.52,1.52,0,0,0,1.28-.69,4.73,4.73,0,0,0,.72-1.91,17.06,17.06,0,0,0,.21-2.67Zm16,2.44a5.19,5.19,0,0,1-.21,1.56,4.15,4.15,0,0,1-.66,1.29,4.6,4.6,0,0,1-2.15,1.64,7.91,7.91,0,0,1-2.93.52c-2,0-3.37-.45-4-1.35a4.75,4.75,0,0,1-1-2.94h2.73a2.45,2.45,0,0,0,.16.7,2.52,2.52,0,0,0,.67,1,1.9,1.9,0,0,0,1.4.5,2.7,2.7,0,0,0,3-2.8c0-1.95-.9-2.91-2.69-2.91a3.18,3.18,0,0,0-1.83.47c-.45.32-.67.63-.67.93L165.09,289l1-7h8.45l.06,2.24h-6.37l-.39,2.69a7.53,7.53,0,0,1,2-.18,6.43,6.43,0,0,1,2.66.54,4.35,4.35,0,0,1,1.9,1.68,5.12,5.12,0,0,1,.71,2.81Zm12.62-1.3-10.44,0v-2.34h10.29l.09,2.4Zm12.89,5.88-10.51-.06v-3a10.2,10.2,0,0,0,3.32-2.09,14.73,14.73,0,0,0,2.57-3,5.15,5.15,0,0,0,1-2.38,2,2,0,0,0-.72-1.73,3.7,3.7,0,0,0-2.1-.5,3.88,3.88,0,0,0-1.65.51,5,5,0,0,0-1.4,1l-.78-.59,1.26-2.51a6.38,6.38,0,0,1,1.53-.62,5.87,5.87,0,0,1,1.61-.3,6.45,6.45,0,0,1,2.53.5,4.25,4.25,0,0,1,2.64,4.12,6,6,0,0,1-.81,2.59,15.21,15.21,0,0,1-.91,1.49,13.06,13.06,0,0,1-1.19,1.48,16.44,16.44,0,0,1-1.31,1.33,9.43,9.43,0,0,1-1.35,1h6.19l.09,2.65Zm12.51-7a12.74,12.74,0,0,1-.5,3.58,5.8,5.8,0,0,1-1.67,2.72,4.36,4.36,0,0,1-3,1.06,4,4,0,0,1-2.82-1.08,6.6,6.6,0,0,1-1.73-2.77,10.77,10.77,0,0,1-.58-3.51,11.48,11.48,0,0,1,.56-3.49,6.33,6.33,0,0,1,1.7-2.77,4,4,0,0,1,2.84-1.08,4.44,4.44,0,0,1,3.08,1.06,5.78,5.78,0,0,1,1.65,2.7,11.49,11.49,0,0,1,.38,1.74,12.57,12.57,0,0,1,.15,1.84Zm-3,0a15.39,15.39,0,0,0-.4-3.83,1.78,1.78,0,0,0-1.84-1.47c-.8,0-1.36.53-1.7,1.6a12.51,12.51,0,0,0-.36,1.72,15.07,15.07,0,0,0-.13,2,11.49,11.49,0,0,0,.55,3.68c.38,1.06.93,1.59,1.67,1.59a1.52,1.52,0,0,0,1.27-.69,4.55,4.55,0,0,0,.73-1.91,17.06,17.06,0,0,0,.21-2.67ZM222,295.62l-2.95.88V284.15a22,22,0,0,0-2,1,10.31,10.31,0,0,0-1.52.93l-1-1.79,6.13-3.15,1.4.94v13.53Zm13.8.69-10.5-.06v-3a10.3,10.3,0,0,0,3.33-2,14.73,14.73,0,0,0,2.57-3,5.24,5.24,0,0,0,1-2.38,2,2,0,0,0-.71-1.73,3.7,3.7,0,0,0-3.75,0,5,5,0,0,0-1.41,1l-.77-.59,1.26-2.51a8.09,8.09,0,0,1,3.13-.92,6.45,6.45,0,0,1,2.53.5,4.36,4.36,0,0,1,1.91,1.54,4.29,4.29,0,0,1,.73,2.58,5.94,5.94,0,0,1-.8,2.59,13.58,13.58,0,0,1-.92,1.49,13.06,13.06,0,0,1-1.19,1.48,16.32,16.32,0,0,1-1.3,1.33,10.25,10.25,0,0,1-1.35,1h6.18l.09,2.65Zm8.63-7.21a19.18,19.18,0,0,1-.57,4.89,13.14,13.14,0,0,1-1.33,3.27,8.92,8.92,0,0,1-1.46,1.89l-.83.76-2.39.09.89-.91a8.24,8.24,0,0,0,1.34-1.93,13.38,13.38,0,0,0,1.15-3.27,22.26,22.26,0,0,0,.47-4.82,21.28,21.28,0,0,0-.14-2.52,16.91,16.91,0,0,0-.44-2.23,13.63,13.63,0,0,0-1.29-3.23,9.48,9.48,0,0,0-1.27-1.76,15.31,15.31,0,0,0-1.22-1.07l2.64-.06.86.93a11.29,11.29,0,0,1,1.53,2.1,17.07,17.07,0,0,1,1.41,3.33,16.17,16.17,0,0,1,.48,2.17,15.65,15.65,0,0,1,.17,2.37Z"/></svg>