<svg xmlns="http://www.w3.org/2000/svg" id="layer" x="0" y="0" version="1.1" xml:space="preserve" viewBox="0 0 404.3 413.919"><defs/><path id="rect4" fill="none" fill-rule="evenodd" d="M-38.6-52.181h481.5v500H-38.6z" clip-rule="evenodd"/><path id="path8" fill="#231f20" d="M143 324.719l.5-.5c.6-.3 1.1-.5 1.6-.8.5-.3.9-.6 1.3-1 .3 0 .5-.1.7-.3.2-.2.4-.4.5-.8.3-.3.6-.5.9-.7.3-.2.6-.4.9-.7l.4-.1c.1-.2.1-.3.2-.4.1-.1.2-.2.3-.2l.5-.5.9-.6c.5-.3 1-.6 1.4-.9.4-.3.7-.4.7-.4.1 0 .2 0 .3.1.1.1.1.2.1.2 0 .1-.1.1-.1.3-.1.1-.2.2-.2.4 0 0 0 .1.1.2 0 .1.1.2.1.3 0 .1-.1.3-.4.6-.2.3-.4.5-.6.7l-.6.8c-.3.1-.7.5-1 1-.4.5-.7.8-.9 1l-.2.2-.1.1-.4.4c-.1.1-.2.3-.3.3l-.5.3c-.3.1-.5.2-.6.4-.1.2-.2.4-.3.8-.2.2-.4.3-.7.5-.3.2-.7.5-1.3.8h-.2l-.1.2-.6.1c-.1.3-.3.5-.5.6-.2.2-.4.3-.6.3-.5.3-1.1.6-1.5.8-.5.2-.9.4-1.4.6l-.7.1c-.3.2-.6.3-.9.4-.3.1-.6.2-.9.2l-.8-.1h-.6c-.5 0-1-.1-1.5-.2s-1-.3-1.5-.6l-.4-.5c-1-.3-1.7-1-2.1-1.9-.4-.9-.5-2.5-.5-4.9-.3.3-.6.6-1 .8-.4.2-.8.4-1.4.5l-.4.6c-.5.3-.9.5-1.2.6-.3.1-.5.2-.7.2l-.4-.3c.1-.1.1-.2.1-.3v-.2l-.1-.1c0-.1-.1-.1-.2-.3l.1-.4s.1-.1.2-.3c.7-.9 1.6-1.7 2.5-2.6l.5-.6.2-.3c0-.1.1-.2.2-.2.1-.1.2-.1.4-.2l.4-.1c.2 0 .3-.1.5-.2.1-.1.3-.3.5-.6.2-.2.4-.4.7-.5.3-.2.5-.3.8-.4.3-.1.5-.2.7-.3.1-.1.2-.3.3-.6.6-.3 1.1-.6 1.5-.8.4-.2.7-.5.9-.8l.3-.5c.6-.5 1.3-1 2.1-1.5.7-.5 1.5-1 2.4-1.6l.5-.2c.2-.3.4-.5.6-.7.2-.2.5-.4.9-.5.2-.1.7-.3 1.4-.7.7-.4 1.5-.6 2.2-.6h.1c.2-.1.3-.1.4-.2h.3c.2 0 .3 0 .4.1.1.1.2.3.3.6v.8c0 .1 0 .3.1.6v.3c-.3.6-.6 1.1-1 1.5-.4.4-.9.9-1.5 1.3l-.6.3-.6.6h-.7l-.7.9c-.5.4-1 .7-1.4 1-.4.3-.8.7-1.2 1l-.9.4-.4.6c-.7.2-1.3.7-1.9 1.5-.5.8-.8 1.4-.8 2 0 .1 0 .3.1.5 0 .2.1.3.1.6l-.1.6.2.4c.1.7.5 1.3 1 1.6.5.3 1.2.5 2.2.5.1 0 .3 0 .7-.1.4 0 .6-.1.8-.1l.5-.5h.7zm-28.9-2.2l-.1-.6-.8.6-.4.3-.6.5c-.3.2-.6.3-.7.4-.2.1-.3.2-.4.3l-.3.3-.6.3c-.1.2-.2.4-.4.5-.2.1-.5.1-.9.1-.2 0-.3 0-.4-.1 0 0-.1-.2-.1-.4 0-.3.1-.5.2-.6.1-.1.3-.2.5-.4v-.6l.6-.6c.2-.2.4-.5.7-.8l.5-.6.4-.2c.1-.3.3-.5.5-.7.2-.2.5-.3.8-.5l.2-.4.8-.5.7-.6s.1-.1.1-.2.1-.2.1-.3v-.2l.3-.6-.1-.3.2-.5c.1-.7.3-1.3.4-1.7.2-.5.4-.9.6-1.3l.4-.2-.1-.4c.4-.8.9-1.5 1.5-2.2.6-.7 1.5-1.6 2.8-2.7h.3l.2-.3.3-.1.2-.4c.5-.4 1-.7 1.5-.9.5-.2 1-.3 1.6-.3h.5c.1 0 .2 0 .3.1l.3.1 1.2.4.4.5.2.1c.1.3.2.6.3.8.1.2.1.4.1.5v.5l.2.4-.1.7-.2.8-.4.6-.1.7c-.1.3-.3.5-.6.8-.2.3-.5.6-.9 1l-.2.4c-.5.6-1 1.2-1.7 1.8-.6.6-1.4 1.3-2.5 2.1l-.5.2-.2.3-1 .7-.4.5-.2.2v.2c0 .2 0 .4.1.6.1.2.2.5.3.8l.3.4.2.6c.5.4 1 .6 1.4.8.5.2.9.3 1.3.3.3 0 .6 0 .9-.2.3-.1.7-.3 1.2-.5l.4-.1 1-.7h.8l.2-.5c.1-.1.3-.3.7-.6.4-.4.8-.7 1.1-1l.5-.2.3-.5c.2-.2.5-.3.8-.5l.9-.3c.2-.3.4-.5.6-.6.2-.2.5-.3.8-.4l.5-.5c.2-.1.3-.1.5-.1.1 0 .3-.1.3-.1.2 0 .4 0 .5.1.1.1.1.2.1.4 0 .1 0 .2-.1.4-.1.1-.1.3-.2.4l-.1.4c-.1.2-.3.5-.6.8-.3.3-.6.6-1.1 1v.2c0 .2-.1.4-.2.5-.1.1-.3.2-.7.2-.3.5-.8 1.1-1.7 1.8-.3.2-.5.4-.6.5l-.5.4-.3.1c-.2.1-.3.3-.5.4-.2.1-.4.4-.7.6l-.3.4-.7.5c-.6.6-1.4 1-2.2 1.4-.8.3-1.4.5-2 .5h-.3l-.7-.1-.3.2h-.8c-.7 0-1.3-.1-1.8-.2-.5-.2-.8-.4-1.1-.7l-.4.1-.7-.6-.4-.7-.3-.3c-.2-.3-.3-.5-.5-.7-.1-.2-.2-.5-.3-.8zm7.9-9l.5-.3c0-.2.1-.4.3-.7.2-.3.2-.6.2-1 0-.3-.1-.4-.1-.5 0 0-.1-.1-.2-.1h-.1l-.5.3-1.1 1-1.1 1.1-1 1.4c-.1.2-.2.4-.3.7-.1.2-.1.4-.1.6v.1H118.8c.1 0 .1-.1.3-.1h.7c.1 0 .2-.1.3-.2l.3-.5.5-.5zm-37.5 4.4l.4-.4c.6-.7 1.5-1.7 2.6-2.9 3.1-3.6 5-5.5 5.6-5.7l.6-.2.6-.4.7-.2.4.1.4.1c.6.4 1 .8 1.2 1.1.2.3.3.7.3 1.1v.7c0 .2-.1.5-.2.8l-.1 1c-.1.4-.2.8-.3 1.1l-.3.9-.4.6v.5c-.2.5-.5 1-.7 1.6-.2.6-.5 1.4-.9 2.5l-.3.2.1.1c.1.1.1.2.1.4s-.1.4-.3.6c-.2.2-.3.5-.3.7v.2l1.2-1.1c.2-.4.5-.7.8-1.1.3-.4.7-.7 1.1-1.1l.4-.2.2-.3.1-.3c.1-.2.2-.4.3-.5.1-.2.2-.3.4-.4l.9-.5.4-.7c1.1-1 2-1.8 2.8-2.2.9-.5 1.7-.7 2.4-.7.5 0 1 .1 1.3.3.3.2.6.5.7.8l.5.6c.1.3.4.8.7 1.5.3.7.5 1.2.7 1.5l-.2.6c.2.1.5.5.8 1.2.3.6.6.9 1 .9.1 0 .2 0 .4-.1.1 0 .3-.1.5-.1l.3-.1.2-.4.7-.5.5-.5c.7-.2 1.5-.6 2.3-1.2.9-.6 1.5-1 1.8-1 .2 0 .3 0 .4.1.1.1.1.2.1.5 0 0 0 .1-.1.3-.1.2-.1.5-.2.7l-.4.4c-.5.6-1.1 1.3-1.7 1.9-.6.6-1.3 1.3-2 2.1l-.3.3-.5.3c-.1.4-.5.7-1 1-.1.1-.2.1-.2.2l-.4.4-1.2.5c-.3.1-.5.2-.7.3-.2.1-.3.1-.5.1-.7 0-1.4-.3-2-1-.7-.6-1.2-1.5-1.7-2.6l-.1-.6c-.4-.3-.7-.6-1-1-.3-.4-.7-.7-1-1.2-.1-.1-.2-.1-.3-.1h-.3c-.2 0-.5.1-.8.3-.3.2-.8.6-1.6 1.3l-.5.2-.5.7c-.2.3-.4.5-.7.7-.3.2-.5.3-.8.4l-.8 1.2c-1.1 1.3-2 2.3-2.6 2.9-.6.7-1.1 1.1-1.5 1.5-.5.6-.9 1-1.4 1.2-.5.2-1.1.3-1.8.3-.4 0-.7-.1-.8-.2-.1-.1-.3-.3-.3-.7l.1-.8-.2-.3.1-.6c.6-1.9 1-3.3 1.2-4.2.3-1 .4-1.5.4-1.7 0 0 0-.1.1-.3.1-.2.2-.4.2-.6l.3-.5c0-.1-.1-.2-.1-.2v-.2c0-.1.1-.5.3-1.1.2-.6.3-1 .3-1.4 0-.1 0-.2-.2-.2-.1-.1-.2-.1-.4-.1-.6 0-1.2.3-1.6.8-.4.6-.7.9-.8.9l-.8 1-.7.6-.4.1-.2.2-.2.3-.2.3c-.2.1-.3.2-.4.2l-.2.2-.5.5c-1.4 1.1-2.6 1.9-3.4 2.5-.8.6-1.3.8-1.6.8-.2 0-.3 0-.4-.2-.1-.1-.2-.3-.2-.4 0-.2.1-.4.2-.5.1-.2.3-.3.6-.5v-.5c.8-1 1.6-1.8 2.3-2.5.7-.7 1.1-1 1.2-1 0 0 0-.1-.1-.2 0-.1 0-.1.1-.1h.2c.1 0 .2 0 .2-.1.1-.1.1-.3.1-.5l.4-.3zm-29.6 0l.4-.4c.6-.7 1.5-1.7 2.6-2.9 3.1-3.6 5-5.5 5.6-5.7l.6-.2.6-.4.7-.2.4.1.4.1c.6.4 1 .8 1.2 1.1.2.3.4.7.4 1.1 0 .2 0 .5-.1.7-.1.2-.1.5-.2.8l-.1 1c-.1.4-.2.8-.3 1.1l-.3.9-.4.6v.5c-.2.5-.5 1-.7 1.6-.2.6-.5 1.4-.9 2.5l-.3.2s0 .1.1.1c0 .1.1.2.1.4s-.1.4-.3.6c-.2.2-.3.5-.3.7v.2l1.2-1.1c.2-.4.5-.7.8-1.1.3-.4.7-.7 1.1-1.1l.4-.2.2-.3.1-.3c.1-.2.2-.4.4-.5.1-.2.2-.3.4-.4l.9-.5.5-.7c1-1 2-1.8 2.8-2.2.8-.5 1.6-.7 2.4-.7.5 0 1 .1 1.3.3.3.2.6.5.7.8l.6.6c.1.3.4.8.7 1.5.3.7.6 1.2.7 1.5l-.2.6c.2.1.5.5.8 1.2.3.6.6.9 1 .9.1 0 .2 0 .4-.1.1 0 .3-.1.5-.1l.2-.1.2-.4.7-.5.5-.5c.7-.2 1.4-.6 2.3-1.2.9-.6 1.5-1 1.8-1 .2 0 .3 0 .4.1.1.1.1.2.1.5 0 0 0 .1-.1.3-.1.2-.1.5-.2.7l-.4.4c-.5.6-1.1 1.3-1.7 1.9-.6.6-1.3 1.3-2 2.1l-.3.3-.5.3c-.1.4-.4.7-1 1-.1.1-.2.1-.2.2l-.4.4-1.2.5c-.3.1-.5.2-.7.3-.2.1-.3.1-.5.1-.7 0-1.3-.3-2-1-.7-.6-1.2-1.5-1.7-2.6l-.1-.6c-.4-.3-.7-.6-1-1-.3-.4-.6-.7-.9-1.2-.1-.1-.2-.1-.3-.1h-.3c-.2 0-.5.1-.8.3-.3.2-.8.6-1.6 1.3l-.6.2-.5.7c-.2.3-.4.5-.7.7-.2.2-.5.3-.8.4l-.8 1.2c-1.1 1.3-2 2.3-2.6 2.9-.6.7-1.1 1.1-1.5 1.5-.4.6-.9 1-1.4 1.2-.5.2-1.1.3-1.8.3-.4 0-.7-.1-.8-.2-.1-.1-.3-.3-.3-.7l.1-.8-.2-.3.1-.6c.6-1.9 1-3.3 1.3-4.2.3-1 .4-1.5.4-1.7 0 0 0-.1.1-.3.1-.2.1-.4.2-.6l.3-.5c0-.1-.1-.2-.1-.2v-.2c0-.1.1-.5.3-1.1.2-.6.3-1 .3-1.4 0-.1-.1-.2-.2-.2-.1-.1-.2-.1-.4-.1-.6 0-1.2.3-1.6.8-.4.6-.7.9-.8.9l-.7 1-.6.6-.4.1-.2.2-.2.3-.2.3c-.2.1-.3.2-.4.2-.1.1-.1.1-.1.2l-.6.5c-1.4 1.1-2.5 1.9-3.4 2.5-.8.6-1.4.8-1.6.8-.2 0-.3 0-.4-.2-.1-.1-.2-.3-.2-.4 0-.2.1-.4.2-.5.1-.2.3-.3.6-.5v-.5c.8-1 1.6-1.8 2.3-2.5.7-.7 1.1-1 1.2-1 0 0 0-.1-.1-.2 0-.1 0-.1.1-.1h.2c.1 0 .2 0 .2-.1.1-.1.1-.3.1-.5l.4-.3zm-22.9 3.2c-1 1-2.1 1.9-3.4 2.8-1.3.9-2 1.3-2.3 1.3-.1 0-.3-.1-.4-.2-.1-.1-.2-.3-.2-.4 0-.2.1-.4.2-.6.1-.2.3-.3.6-.5v-.5c.8-1 1.6-1.8 2.2-2.5.7-.7 1.1-1 1.2-1 .3-.2.6-.5.8-1 .1-.2.2-.3.2-.4l.6-.4.4-.4.3-.2.2-.5 1.4-1.4 1.3-1.1 1.1-1.4c.3-.4.7-.8 1.1-1.1.4-.3.8-.7 1.3-1l.5-.3.1-.4c.9-1 1.6-1.6 2.1-1.8.5-.3 1-.4 1.7-.4.4 0 .7.1 1 .2.3.1.4.3.4.4 0 0-.2.3-.5.9-.3.5-.7 1-.9 1.4l1.2-.7.7-.3c.1-.1.3-.1.4-.2.1 0 .3-.1.5-.1h.4c.1 0 .2 0 .2.1l.6-.1c1.4.2 2.5.7 3.4 1.6.9.9 1.3 2 1.3 3.3v.6l-.3 1.3-.1.5-.3 1-.6 1.4-.4.5-.5.4-.2.6c0 .1-.3.5-.8 1.1-.5.6-1.3 1.4-2.1 2.3l-.5.8-.5.3-.5.1-.6.5c-.3.3-.6.6-1 .8l-.9.6-1 .1-.5.1-.4.5c-.3.1-.6.2-1 .3-.4.1-.6.2-.6.2h-.5c-.1.1-.3.2-.5.2-.2.1-.4.1-.7.1-1.2 0-2.2-.4-3-1.1-.8-.7-1.2-1.6-1.2-2.8v-.3l.1-.4c0-.1-.1-.3-.1-.4-.1-.3-.1-.5-.1-.7 0-.3.2-1.3.6-2.9l.1-.6-.4.3-.5.6-.5.3zm6.6-1.4v.6l-.1.6v.5l-.2.6c0 .1 0 .1-.1.2v.4c0 .2 0 .4.1.6 0 .2.1.4.2.6v.2c.1.2.3.3.4.4.1.1.3.2.5.2l.6.1c.2-.2.5-.3 1-.5s.9-.4 1.1-.5l.8-.5 2.1-2.1.7-.9.4-.2-.1-.5.2-.4c.2-.4.5-1.1.9-2.3l.1-.1.1-.7c-.3-.8-.6-1.3-1-1.6-.4-.3-.8-.4-1.3-.4h-.4c-.1 0-.3.1-.4.1l-.6.2-.4.5c-.5.4-1 .9-1.4 1.6-.5.7-.8 1.1-1.1 1.2l-.7-.2h-.3-.1c0 .3 0 .5-.1.6 0 .2-.1.3-.1.4zm-13.5 5.8c.2.1.4.2.4.3.1.1.1.2.1.4 0 .1 0 .2-.1.4s-.1.4-.2.6c-.1.3-.3.6-.5.9-.2.3-.4.5-.7.8l-.5.2-.3.7c-2 1.2-3.8 2.1-5.6 2.8-1.8.6-3.3.9-4.7.9-.5 0-1 0-1.5-.1s-1-.2-1.4-.3l-.6-.6-.5.2-.7-.7-.8.1c-1.2-.4-2.5-1.4-3.7-2.8-1.2-1.4-2.1-3.1-2.7-4.9l.1-.7-.4-.5.1-.6-.4-.3-.1-.9.1-.5-.3-.3.3-1-.4-.3.1-1-.2-.6c0-2.1.2-3.7.4-5 .2-1.2.5-2 .9-2.4l-.1-1.3.3-1.2.4-.4c.2-1.1.8-2.5 1.8-4.2 1-1.7 2.3-3.6 3.9-5.5l.8-.7.8-1.1 1.2-.8.5-.2.2-.5c1.5-1.3 2.9-2.3 4.3-3 1.4-.7 3.4-1.2 6.2-1.7l.6.1 1-.2 1.1.5.3.5 1 .2 1.1.8v.3l.6.4c.2.9.4 2 .5 3.2.1 1.2.2 2.5.2 4 0 .8 0 1.6-.1 2.2-.1.7-.2 1.3-.3 2l-.3.5.1.7c-.2.9-.5 2.1-1 3.4-.5 1.3-1.1 3-1.9 4.9l-.2.7-.9.5-.6-.2-.5.5-1.2.3-.4-.3h-.5l-.1-1.3.4-.4-.3-.7v-.5c.1-2.5.3-4.1.6-4.9l-.1-.4.4-.8-.1-.8c.2-.6.5-1.2.7-1.9.2-.7.5-1.5.6-2.3l1.4-1.3.3-2-.1-1c-.4-.4-.8-.7-1.1-.9-.4-.2-.8-.4-1.3-.5l-.3-.5-2.1.1-.6-.2-.5.5c-.4.1-.9.2-1.3.3-.4.1-.8.3-1.2.4l-.6-.2-.8.4-.1.5-1.4 1.2h-.4l-.2.6c-.5.5-.9 1-1.3 1.5s-.8 1-1.2 1.4l-.3.4.1.5c-1.1 1.8-2 3.7-2.6 5.8-.6 2.1-1 4.4-1.2 7.1l-.4.9.4.7c.1.7.1 1.3.2 1.9l.3 1.8-.1.8.5.8.6 1.2c.4.7.6 1.2.8 1.6v1l.9.5c.6.9 1.5 1.7 2.8 2.3 1.3.7 2.4 1 3.4 1 .3 0 1-.1 1.8-.3.9-.2 1.6-.3 2.1-.3l.3.2 1.1-1 1-.2.6-.6 1.2-.5.9.1.2-.7z" class="st2"/><path id="path10" fill="#231f20" d="M257.8 332.919c-.4.2-.8.4-1.1.5-.3.1-.6.2-.9.2-.2 0-.4-.2-.7-.5-.2-.3-.4-.6-.6-.8l-.3-1.4.1-1.3-.4-.9v-4.4c0-.7 0-1.2.1-1.7s.2-.9.4-1.3l-.3-.8c.3-2.4.4-4.2.5-5.4.1-1.2.2-2.3.4-3.4l.2-1.7.2-.3c-.1-.6-.1-1.2-.2-1.7s-.1-1-.1-1.5l-.8-.1c-.1-.3-.1-.6-.1-.9 0-.2-.1-.5-.1-.6 0-.1.1-.4.2-.9 0-.2.1-.4.1-.5l.3-.8-.1-.9.7-2.8.5-.7.1-1.3c.1-.3.2-.7.4-1.2 1-2.8 2.2-4.4 3.7-4.7l.5.1.5-.4c.4-.1.8-.2 1.1-.3.3-.1.6-.1.9-.1.2 0 .3.1.4.3.1.2.1.6.1 1.1-.3 3.3-.6 5.8-1 7.4-.3 1.6-.8 2.9-1.3 3.9l.2.7-.5 2.2-.5 2.5.1.8-.4 1.4.1 1-.4 1.1v.8l-.3 1.7-.4 4 .1 1c-.2.9-.3 1.8-.4 2.9-.1 1-.1 2.4-.1 4 0 .3 0 .6.1 1 0 .4.1.9.2 1.5v.6l.5.7c-.1.4-.2.7-.5 1-.3.3-.7.6-1.2.9m-34.9-3.8l-.3-.3-.2-.8-.8-.4-.6-.7-.8-1.1c-.6-.5-1-1.1-1.4-1.8-.3-.7-.6-1.6-.8-2.8l-.1-.4v-.5l-.1.3-.7.2-.6.5-.6.3-.3.3c0 .2-.1.3-.2.4-.1.1-.1.1-.2.1 0 0-.1 0-.1-.1h-.2l-.3.3c-.1.2-.3.4-.6.5-.3 0-.7.2-1.1.7-.4.5-.8.7-1.4.7-.3 0-.5-.1-.7-.2-.2-.1-.3-.3-.3-.6 0-.1.1-.4.4-.8.3-.4.6-.7.9-.9.2-.1.3-.3.4-.7.1-.3.4-.5.8-.5l.6-.7c.3-.2.5-.3.7-.6.2-.2.3-.5.4-.8l.3-.2c.1-.3.2-.5.3-.7.1-.1.3-.3.6-.4l.2-.1.1-.4 1.8-2.2 1-1.5.5-.9.5-.3.3-.8c.3-.7.9-1.5 1.8-2.5s1.4-1.7 1.7-2.2l1.1-1 .2-.4.8-.4.3-.6c1.4-1 2.4-1.7 3-2 .6-.3 1.1-.5 1.6-.5s.8.1 1 .3c.2.2.3.6.4 1.1l.2.9c0 .3-.1.5-.1.7-.1.2-.2.4-.4.5l-.8 1.4c-.3.3-.7.8-1.2 1.3-.5.6-1.3 1.5-2.3 2.7l-.5.2-.6.9-.7.5-.2.4c-.5.4-.9.8-1.3 1.2-.4.4-.7.8-.9 1.2l-.7.2v.6l-.5 1.1.2.5.1 2c.4 1 .9 2 1.5 3s1.3 1.9 2.1 2.8l1-.6 2.1-2.2 1.6-1.3.5-.7.9-.8.6-.4c.6-.5 1.2-1.1 2-1.6s1.2-.8 1.4-.8c.2 0 .3.1.5.2.2.2.2.3.2.5 0 .3-.3.8-.8 1.5s-.9 1.3-1.1 1.8c-.4.2-.8.4-1.1.7-.3.3-.6.6-.8.9l-1 .8-.3.5-.9.9-.8.5-.1.7-1.2 1.2-.6 1c1.3 1.9 2.1 3.3 2.6 4.3.4.9.6 1.8.6 2.7 0 .3-.1.8-.1 1.6 0 .3-.1.5-.1.6l-.4.3.1.8c-.7 1.5-1.7 2.9-2.9 4.1-1.2 1.2-2.7 2.4-4.5 3.5l-.6.1-.4.4c-.8.2-1.4.4-2.1.5-.6.1-1.1.2-1.6.2-.8 0-1.6-.2-2.2-.5-.7-.4-1.2-.9-1.6-1.6v-3.9c0-.2.1-.5.2-.8.1-.4.3-1 .6-1.7l.4-.5.1-.5c.4-.7.8-1.3 1.1-1.8.4-.5.7-1 1.1-1.3l.5-.4.1-.4c.3-.4.9-1 1.6-1.9.7-.9 1.3-1.5 1.6-1.8zm2.1 2.6c-.2 0-.4.1-.5.2-.1.1-.3.2-.4.3l-.2.6c-1.4 1.5-2.6 2.9-3.5 4.2-.9 1.3-1.6 2.5-2.2 3.7l-.2.9-.5 1 .2.4.2.5c.2.2.3.3.5.4.2.1.4.1.5.1.3 0 .5 0 .9-.1.3-.1.7-.1 1-.2l1.7-.9.8-.1.1-.8c1.2-.8 2.1-1.7 2.8-2.8.7-1.1 1-2.3 1-3.6v-.2l-.5-1.6-1-1.3zm-38.5-13.9l.4-.4c.6-.7 1.5-1.7 2.6-2.9 3.1-3.6 5-5.5 5.6-5.7l.6-.2.6-.4.7-.2.4.1.4.1c.6.4 1 .8 1.2 1.1.2.3.3.7.3 1.1 0 .2 0 .5-.1.7 0 .2-.1.5-.2.8l-.1 1c-.1.4-.2.8-.3 1.1l-.3.9-.4.6v.5c-.3.5-.5 1-.7 1.6-.2.6-.5 1.4-.9 2.5l-.3.2s0 .1.1.1c0 .1.1.3.1.4 0 .2-.1.4-.3.6-.2.2-.3.5-.3.7v.2l1.2-1.1c.2-.4.5-.7.8-1.1.3-.4.7-.7 1.1-1.1l.4-.2.2-.3.1-.3c.1-.2.2-.4.3-.5.1-.2.3-.3.4-.4l.9-.5.4-.7c1.1-1 2-1.8 2.8-2.2.8-.5 1.7-.7 2.4-.7.5 0 1 .1 1.3.3.3.2.6.5.7.8l.6.6c.1.3.4.8.7 1.5.3.7.5 1.2.7 1.5l-.2.7c.2.1.5.5.8 1.2.3.6.6.9 1 .9.1 0 .2 0 .4-.1.1 0 .3-.1.5-.1l.2-.1.2-.4.7-.5.5-.5c.7-.2 1.5-.6 2.3-1.2.9-.6 1.4-1 1.8-1 .2 0 .3 0 .4.1.1.1.1.2.1.5 0 0 0 .1-.1.3-.1.2-.1.5-.2.7l-.4.4c-.5.6-1.1 1.3-1.7 1.9l-2 2-.3.3-.5.3c-.1.4-.4.7-1 1-.1.1-.2.1-.2.2l-.4.4-1.2.5c-.2.1-.5.2-.7.3-.2.1-.3.1-.5.1-.7 0-1.4-.3-2-1-.7-.6-1.2-1.5-1.7-2.6l-.1-.6c-.4-.3-.7-.6-1-1-.3-.4-.6-.7-1-1.2-.1-.1-.2-.1-.3-.1h-.3c-.2 0-.5.1-.8.3-.3.2-.8.6-1.6 1.3l-.6.2-.5.7c-.2.3-.4.5-.7.7-.2.2-.5.3-.8.4l-.8 1.2c-1.1 1.3-2 2.3-2.6 2.9-.6.7-1.1 1.1-1.5 1.5-.5.6-.9 1-1.4 1.2-.5.2-1.1.3-1.8.3-.4 0-.7-.1-.8-.2-.1-.1-.3-.3-.3-.7l.1-.9-.2-.3.1-.6c.6-1.9 1-3.3 1.2-4.2.3-1 .4-1.5.4-1.7 0 0 0-.1.1-.3.1-.2.2-.4.2-.6l.3-.5c0-.1-.1-.2-.1-.2v-.2c0-.1.1-.5.3-1.1.2-.6.3-1 .3-1.4 0-.1-.1-.2-.1-.2-.1-.1-.2-.1-.4-.1-.6 0-1.2.3-1.6.8-.4.6-.7.9-.8.9l-.8 1-.7.6-.4.1-.2.2-.2.3-.2.3c-.2.1-.3.2-.4.2l-.2.2-.5.5c-1.4 1.1-2.5 1.9-3.4 2.5-.8.6-1.4.8-1.6.8-.2 0-.3-.1-.4-.2-.1-.1-.2-.3-.2-.4 0-.2.1-.4.2-.5.1-.2.3-.3.6-.5v-.5c.8-1 1.5-1.8 2.2-2.5.7-.7 1.1-1 1.2-1 0 0 0-.1-.1-.2 0-.1.1-.1.1-.1h.2c.1 0 .2 0 .2-.1.1-.1.1-.3.1-.5l.4-.3zm-4.6 7.9l-.3.3-1.1.5-1 .1h-.8c-.5 0-.9-.1-1.3-.3-.4-.2-.7-.4-1-.8l-.2-.5-.4-.4v-.3l-.1-.2-.3-.2-.7-1.4v-.6l-.4-.3-.6-1.1c-.1-.1-.3-.3-.4-.5-.3-.4-.5-.6-.6-.6-.1 0-.2 0-.3.1-.1.1-.2.1-.3.2l-.5.1-.2.4-.6.6-.4.1-.4.3-.2.3-.3.3c-.5.4-1 .8-1.8 1.3-1.9 1.4-3 2-3.3 2-.1 0-.3 0-.4-.2-.1-.1-.2-.3-.2-.4 0-.2.1-.4.2-.5.1-.2.3-.3.6-.5v-.5c.8-1 1.6-1.8 2.2-2.5.7-.7 1.1-1 1.2-1 .3-.3.5-.7.7-.9.3-.3.5-.6.8-.8l.5-.6.4-.2.1-.3c.2-.2.5-.6 1-1.2s.9-1.2 1.3-1.6l.7-.4.3-.6.6-.5h2.2l1.1.7c.4.2.7 1.1.9 2.7v.3l.4 2.8.2.4c.3 1.1.6 1.8.9 2.1.3.3.7.5 1.3.5.3 0 .5-.1.8-.2.3-.1.5-.3.8-.6l.6-.1.3-.4 1.2-1 .3-.5c.9-.4 1.8-1 2.6-1.6.9-.6 1.4-1 1.7-1 .2 0 .3.1.4.2.1.1.2.2.2.4 0 0 0 .1-.1.2l-.3.9-.4.4c-.4.4-.8.9-1.2 1.4-.3.5-.6.8-.7.8h-.1l-.4.6-.6.7-.4.2-.6.5c-.3.3-.8.7-1.3 1.3-1.1.9-1.8 1.5-2.3 1.6m-5.7-22.7l-.6.2c-.2 0-.3-.1-.4-.2l-.3-.3-.2-.5c-.1-.2-.2-.4-.2-.5-.1-.2-.1-.3-.1-.5 0-.7.2-1.3.5-1.9.4-.6 1-1.3 1.9-2.1l.3-.1.5.1.1-.5 1.1-1.1.7-.2c.2-.1.3-.2.5-.3.2-.1.4-.1.6-.1.4 0 .7.1.9.3.3.2.4.4.4.7v.1l-.3 1.8-.4 1.2-.3.2v.5l-.4.9c-.1.2-.4.5-.7.8l-.6.6-.4.1-.2.2c-.5.3-.9.5-1.2.6-.3.1-.5.1-.7.1h-.2zm-8.6-7.4c-.2.5-.3 1.1-.5 1.8s-.3 1.3-.5 2.1c.2 0 .4 0 .5.1.2 0 .3.1.5.2.1 0 .2 0 .3.1.1 0 .1.1.1.2v.2c0 .6.1 1.2.1 1.8.1.6.1.9.1.9 0 .5-.1.9-.3 1.1-.2.2-.6.3-1.2.3h-1.5c-.1.4-.3.8-.4 1.2-.2.4-.3.7-.5 1 0 .1 0 .2.1.3.1.1.1.2.1.2 0 .1-.1.3-.2.4-.1.1-.1.2-.2.2-.8 3.2-1.4 5.8-1.9 7.8-.4 2-.8 3.7-1 5.2v.2c-.1.1-.1.2-.1.3v.4c-.1.7-.2 1.3-.3 1.8-.1.6-.1 1-.1 1.3 0 .1.1.3.2.4.1.1.3.2.3.2.1 0 .4-.1.8-.4.2-.1.3-.2.4-.3h.8c0-.1-.1-.2-.1-.3v-.2-.1s.1-.1.1-.2c.4-.3.7-.6 1.1-1 .4-.3.9-.7 1.4-1.1.1-.2.1-.3.2-.4 0-.1.2-.2.3-.3.3-.2.5-.4.8-.6.3-.2.5-.5.8-.8l.2-.1.2-.4c.4-.3.7-.4.9-.5.2-.1.5-.2.7-.3.1-.1.2-.1.3-.2.4-.4.8-.6 1-.8l.4-.2c.2-.2.4-.3.6-.4.2-.1.3-.1.5-.1s.3 0 .4.1c.1.1.2.1.2.3 0 .1 0 .2-.1.3-.1.1-.1.3-.2.5l-.1.4c-.3.3-.5.6-.8.9l-.9.9c-.1.3-.1.5-.2.6-.1.1-.3.2-.6.2l-.5.7-.9 1-1 1c-.3.3-.5.4-.7.5-.1 0-.2 0-.3.1 0 .1-.1.2-.1.3-.5.7-.9 1.2-1.3 1.6-.4.4-.7.7-1.1.9-.2 0-.3.1-.4.2-.1.1-.2.3-.2.5-.4.6-1 1.2-1.6 1.7-.6.5-1.3 1-2.1 1.4h-.1c-.1.1-.3.2-.5.3-.2.1-.4.1-.6.1h-.4c0-.1-.1-.1-.1-.1l-.1-.1s-.1 0-.1.1c-.1 0-.2 0-.2.1-.1 0-.2-.1-.2-.1-.1 0-.2-.1-.3-.3-.8-.1-1.2-.4-1.5-.9-.3-.4-.4-1.3-.4-2.6v-.4V326.219c0-.1 0-.3-.1-.4v-1c0-.3 0-.7.1-1 .1-.3.1-.7.3-1l.2-.4c-.1-.1-.1-.1-.1-.2v-.5c.2-1.1.4-2 .6-2.8.2-.8.4-1.5.6-2 .3-.3.4-.5.5-.5.1-.1.1-.2.1-.3 0 0 0-.1-.1-.2 0-.1-.1-.1-.1-.2l.2-.9-.4.6c-.2.1-.3.2-.5.4-.1.2-.4.6-.7 1.1-.1.1-.3.3-.6.5s-.5.5-.5.8l-.7.7c-.1.3-.3.5-.4.6-.1.1-.3.2-.4.2-.2 0-.4 0-.5.1-.1.1-.1.2-.2.4l-.2.5-.7.5c-.2.1-.4.3-.5.4-.1.1-.2.3-.3.6l-.3.2c-.4.2-.7.3-.9.5-.2.1-.4.3-.5.4-.2.1-.3.1-.5.2-.1.1-.3.2-.5.4-.3.2-.6.3-.7.4-.2.1-.3.3-.5.4l-.6.4c-.1 0-.2.1-.3.1h-.3c-.3 0-.4 0-.5-.1-.1-.1-.2-.2-.2-.5v-.2c.1-.2.2-.4.3-.5.1-.1.3-.2.5-.2v-.8c.3-.3.6-.5.8-.7.2-.2.4-.4.5-.6l-.1-.4 1-.5c.1-.2.3-.4.4-.6.2-.2.4-.3.7-.5l.3-.5s.1 0 .1-.1c.3-.2.5-.3.6-.5h.1c.3-.1.5-.1.6-.1v-.5l.5-.7c.8-1 1.4-1.7 1.8-2.1.1-.5.7-1.4 1.6-2.5l.3-.3c.2 0 .3-.1.4-.1.1-.1.1-.2.1-.3v-.2c0-.1-.1-.2-.1-.2.3-.4.5-.8.8-1.2l.6-1.2h.1c.3 0 .6-.5 1-1.4.4-1 .8-1.8 1.2-2.4.1-.2.3-.4.5-.6.1-.2.3-.5.4-.7l-.8-.1c-.3.1-.6.2-.8.3-.2.1-.4.1-.6.1-.1 0-.4 0-.7-.1-.3 0-.5-.1-.7-.1h-.2c-.1 0-.1.1-.2.1 0 0-.1 0-.1-.1h-.4c-.1 0-.1 0-.2.1h-3.2c-.1-.1-.2-.1-.3-.2l-.3-.3c0 .1-.1.2-.1.3l-.3.3h-.2c-.2 0-.4 0-.6-.1-.2-.1-.4-.2-.7-.4-.3 0-.5-.1-.6-.2-.1-.1-.1-.3-.1-.7 0-.1 0-.4.1-.9s.1-.9.1-1.3v-.4c0-.2-.1-.3-.1-.5h.4c.1 0 .1-.1.3-.2.1 0 .4-.1.7-.1.5-.1.9-.1 1.1-.1.3 0 .7 0 1 .1.3 0 .7.1 1 .1.6-.1 1.1-.1 1.4-.1h1.4c.3 0 .5.1.8.1H157.8s.1 0 .2-.1c.1 0 .2-.1.3-.1h1.2c.1 0 .3 0 .5.1.2 0 .5.1.8.1l.3.2c.3 0 .5 0 .8-.1.3-.1.5-.1.7-.2.3-.7.6-1.4.9-1.9.3-.6.4-1 .5-1.3.1-.3.3-.5.4-.6.2-.2.4-.3.6-.5v-.1c0-.2.2-.5.5-.6.3-.2.7-.3 1.1-.3.2 0 .4.1.5.1.1.1.3.3.3.6.1.2.2.3.2.5v.2" class="st2"/><path id="path12" fill="#231f20" d="M340.4 321.319c-.4.1-.7.4-.9.8-.3.4-.4.6-.5.6-.1 0-.2-.1-.3-.1-.1-.1-.2-.1-.2-.1s-.1 0-.1.1c-.1 0-.1.1-.3.2l-.3.4c-.2.2-.5.3-.8.5-.3.1-.5.3-.6.4l-.5.3-.4.4-.5.4c-.1.1-.2.1-.3.1h-.5c-.1 0-.1 0-.2-.1l-.1-.3c0-.3.1-.6.2-.8.1-.2.2-.3.4-.4l-.1-.7.5-.5.9-.9.2-.7h.2c.2 0 .3 0 .4-.1.1-.1.2-.2.3-.4l.3-.5.9-.4c.2-.3.4-.6.5-.8l.6-.6c.4-.3.8-.6 1-.8.3-.2.5-.4.7-.5l.3-.1c.1-.2.2-.4.4-.6l.8-.8 1-.8c.2-.3.5-.5.7-.8l.9-.9.5-.1v-.4l2.2-1.6.7-.5.3-.3c.1-.1.3-.2.4-.2l.5-.5.3-.2c.2-.3.4-.5.6-.6.2-.2.5-.3.8-.5l.3-.1.3-.4c.5-.4 1.2-.9 2.1-1.5.3-.2.5-.4.7-.5l.8-.5c.2-.1.4-.2.5-.3.2-.1.3-.1.4-.1.1 0 .3 0 .4-.1.2-.1.3-.1.4-.1h.7c.3 0 .6.1.9.3.3.2.5.4.5.5 0 0 0 .1-.1.1 0 .1-.1.1-.1.2 0 0 .1.1.2.1l.1.1c0 .3-.2.7-.7 1.2-.5.5-1.1 1-1.8 1.4l-.4.5c0 .2-.4.6-1.2 1.3-.5.4-.9.8-1.2 1.1l-.5.3-.4.5-.5.5-.6.7-.6.3-.2.4-.9.9-.6.7-.6.2-.9 1.2c-.3.4-.7.8-1.1 1.3l-1 .9-.9.9c0 .1-.1.3-.2.5-.1.1-.2.3-.4.5l-.3 1.1c.1 0 .2.1.2.1h.2c.1 0 .2-.1.3-.1l.7-.5.6-.2.4-.3.5-.6.3-.1.5-.1c.1-.3.2-.5.5-.6.1-.1.2-.1.3-.1l.2-.4.7-.5c.3-.3.7-.6 1.1-1 .4-.3.9-.7 1.4-1.1l1-1 1.3-1.1c.3-.4.7-.6 1.1-.8.4-.2.9-.3 1.5-.3.3 0 .5.2.8.5.2.3.3.7.3 1.1v.1l-.2.5.1.3-.1 1.5-.1.5.2.4.1.9c.2.6.4 1.1.8 1.4.4.3.8.5 1.4.5.3 0 .7-.2 1.3-.7.6-.4.9-.8.9-1 0-.1.2-.2.7-.4.4-.1.7-.3 1-.4l.7-.8c.3 0 .5-.1.6-.2.2-.1.3-.2.4-.4l.4-.3h.4c.2 0 .3.1.4.1.1.1.2.2.2.4v.1c0 .1 0 .3-.1.4-.1.1-.1.3-.3.5-.2.4-.5.7-.7 1.1l-.9.9-.2.6-.6.1c-.1.4-.3.7-.5.9-.2.2-.5.4-.9.5-.2.3-.4.5-.6.7-.3.2-.5.3-.8.4-.5.6-1 1.1-1.5 1.4-.5.3-1.2.4-1.9.4-1.5 0-2.7-.5-3.5-1.4-.9-.9-1.3-2.1-1.3-3.7v-.6-.6c-.1 0-.3.1-.4.2-.2.1-.3.3-.4.4l-.5.6-1 .6-.7.7-.4.4c-.1.1-.2.1-.2.1h-.4c0 .6-.6 1.3-1.6 2.3-1.1.9-2.4 1.8-3.9 2.4-.4.3-.9.5-1.3.7-.4.1-.8.2-1.1.2-.5 0-1.1-.2-1.6-.7-.6-.5-.8-1-.8-1.5 0-.3.1-.7.2-1.1.1-.4.3-.9.7-1.5zm-5.5 4.4l-.4.3-1.1.5-1 .1h-.8c-.5 0-.9-.1-1.3-.3-.4-.2-.7-.4-1-.8l-.2-.5-.4-.4v-.3l-.1-.2-.4-.2-.7-1.4v-.6l-.4-.3-.6-1.1c-.1-.1-.3-.3-.4-.5-.3-.4-.5-.6-.6-.6-.1 0-.2 0-.3.1-.1.1-.2.1-.3.2l-.5.1-.2.4-.6.6-.4.1-.4.3-.2.3-.3.3c-.4.4-1 .8-1.8 1.3-1.9 1.4-3 2-3.3 2-.1 0-.3 0-.4-.2-.1-.1-.2-.3-.2-.4 0-.2.1-.4.2-.5.1-.2.3-.3.6-.5v-.5c.8-1 1.6-1.8 2.3-2.5.7-.7 1.1-1 1.2-1 .2-.3.5-.7.7-.9.2-.3.5-.6.8-.8l.5-.6.3-.2.1-.3c.2-.2.5-.6 1-1.2s.9-1.2 1.3-1.6l.7-.4.3-.6.6-.5h2.2l1.1.7c.4.2.7 1.1.9 2.7v.3l.4 2.8.2.4c.3 1.1.6 1.8.8 2.1.3.3.7.5 1.3.5.2 0 .5-.1.8-.2.3-.1.5-.3.8-.6l.6-.1.2-.4 1.2-1 .2-.5c.9-.4 1.8-1 2.6-1.6.8-.6 1.4-.9 1.7-.9.2 0 .3.1.4.2.1.1.2.2.2.4 0 0 0 .1-.1.2l-.3.9-.4.4c-.4.4-.8.9-1.2 1.4-.4.5-.6.8-.7.8h-.1l-.4.6-.6.7-.3.2-.6.5c-.3.3-.8.7-1.3 1.3-.7.8-1.4 1.4-1.9 1.5m-5.7-22.7l-.6.2c-.2 0-.3-.1-.4-.2l-.3-.3-.3-.5c-.1-.2-.2-.4-.2-.5-.1-.2-.1-.3-.1-.5 0-.7.2-1.3.6-1.9.4-.6 1-1.3 1.9-2.1l.3-.1.5.1.1-.5 1.1-1.1.7-.2c.2-.1.3-.2.5-.3.2-.1.4-.1.6-.1.4 0 .7.1.9.3.3.2.4.4.4.7v.1l-.4 1.8-.4 1.2-.3.2v.5l-.4.9c-.1.2-.4.5-.6.8l-.6.6-.4.1-.2.2-1.2.6c-.3.1-.5.1-.7.1h-.2zm-25.9 17.6l.4-.7c.4-.4.9-.9 1.3-1.4.4-.5.8-1.1 1.3-1.7l.4-.2.3-.7c.5-.6 1-1.3 1.5-2.3.6-1 1-1.6 1.2-1.9.1-.9.1-1.5.2-1.9.1-.4.1-.8.2-1.2h-.6l-.2.6-.3.5c-.2.2-.4.5-.7.8-.3.3-.5.6-.7.7l-.3.2-.5.2-.1.4c-.1.1-.2.3-.4.6-.8 1-1.4 1.9-2.1 2.7-.2.2-.4.4-.5.6-.1.2-.2.5-.3.7-.2.2-.4.4-.5.6-.1.2-.3.5-.3.7-.2.1-.3.3-.5.5-.1.2-.3.4-.4.7 0 .3-.1.5-.2.7-.1.2-.2.4-.4.5-.1.2-.1.3-.3.5-.1.2-.2.5-.4.7 0 .1-.1.2-.2.4-.2.4-.3.8-.3 1.1.1.1.2.1.3.2.1 0 .1.1.2.1s.2-.1.4-.2.3-.4.5-.6l.5-.4c.2-.2.3-.4.6-.7.3-.6.6-.8.9-.8zm15.8-.3l.9-.4.6-.4c.2-.2.3-.4.5-.5.2-.1.3-.2.5-.2l1.4-.6.7-.8c.2-.1.4-.1.5-.2.1-.1.2-.2.3-.2.2-.2.3-.3.5-.4.2-.1.3-.1.4-.1h.4l.2.2c0 .1.1.1.1.2s-.1.3-.2.7c0 .1-.1.3-.1.3l-.7 1-1 .9c-.1.3-.1.5-.3.6-.1.1-.4.2-.7.2-.1.4-.3.7-.5.9-.2.2-.5.3-1 .4l-.2.3-.5.2c-.1.2-.3.3-.5.4-.2.1-.4.1-.5.1 0 0-.1 0-.1.1-.4.2-.7.5-.8.6-.3 0-.5.1-.7.1-.2.1-.4.2-.7.3l-.4.1-.5-.1h-.8c-.4 0-.8-.1-1.3-.2-.5-.2-1.1-.5-1.7-.8l-.2-.3c-.1-.1-.3-.3-.5-.4-.1-.2-.3-.4-.4-.6l-.1-.4-.2-.2c-.2-.2-.3-.4-.4-.6-.1-.2-.2-.4-.3-.7 0 0 0-.1.1-.1v-.3c0-.1 0-.3-.1-.3l-.3-.3c0-.3-.1-.6-.1-.8-.1-.2-.1-.4-.3-.5l-.1-.7-.3-.6c-.2.2-.4.4-.6.7-.2.3-.3.4-.3.4-.2.1-.3.3-.5.4l-.3.6c-.3.1-.4.3-.6.4-.1.2-.2.4-.3.7l-.2.4-.6.6c-.3.3-.5.6-.8.8l-.7.4-.3.6-.1.1c-.9 1.1-1.6 2-2.4 2.7l-.9.6-.6.6c-.3.2-.6.4-.8.6l-.7.7-.7.3H296.6c-.2 0-.3.1-.4.1h-.2c-.2 0-.4-.1-.6-.3-.2-.2-.4-.4-.5-.8l-.1-.3-.1-.2v-.4l-.1-.2c0-.7.1-1.4.3-2.1.2-.7.5-1.5.8-2.5l.2-1c-.3.2-.6.5-1 .7-.3.2-.6.5-.9.8l-.7.3c-.1.2-.2.3-.4.4-.2.1-.4.2-.7.3l-.2.2c-1.3 1-2.1 1.5-2.4 1.5-.1 0-.2 0-.3-.1-.1-.1-.2-.2-.3-.4l.1-.5c.1-.2.2-.3.3-.4.1-.1.2-.2.3-.2l-.1-.7c.1-.2.2-.3.3-.4.1-.1.3-.3.6-.4.2-.3.4-.5.6-.7.2-.2.5-.4.7-.6.1-.4.3-.7.5-.8.2-.2.4-.3.8-.3l.2-.6.5-.2c.1-.2.2-.3.3-.5.1-.1.3-.2.6-.3h.2c.1 0 .1 0 .2-.1s.1-.2.1-.4c.3-.3.7-.6 1-1 .3-.3.7-.6 1.1-1 .4-.1.7-.3.9-.4.2-.1.2-.3.2-.5v-.1s.3-.2.8-.7l1.5-1.5.3-.4.9-.7 1-1 1.5-1.5c.6-.6 1.4-1.2 2.3-2 .3-.2.6-.5 1-.8.4-.3.9-.7 1.5-1.2.4-.2.7-.3.9-.3.2-.1.4-.1.5-.1.2-.4.3-.8.4-1.2.1-.5.3-1 .3-1.5l.3-.4c.4-1.2.8-2.5 1.2-3.7.4-1.2.9-2.4 1.4-3.5l.4-.3v-.2c0-.3.1-.5.2-.8.1-.2.2-.5.4-.6 0-.1.1-.1.1-.1.3-.3.4-.6.5-.8l.5-.6.2-.8c.2-.4.4-.8.7-1.2.3-.4.6-.8 1-1.2l.5-.7.6-.4.3.2.3-.2c.3 0 .5.1.7.1.1.1.3.1.4.1l.2.5-.2.3.2.3v.2c0 .5-.1 1.1-.4 1.9 0 .1-.1.2-.1.3v.6c-.1.5-.2.9-.3 1.3-.1.4-.3.7-.5 1l.1.5c-.1.4-.1.8-.3 1.2-.1.4-.3.7-.4 1.1l-.3.3.1.3-.1.3-.1.4c-.2.2-.3.3-.4.5-.1.2-.1.4-.1.6v.5c-.1.5-.2.9-.4 1.4-.2.5-.5 1-.8 1.5-.2.1-.3.2-.3.3-.1.1-.1.2-.1.3 0 0 0 .1.1.2v.2c-.1.3-.2.5-.4.8-.1.3-.3.6-.5 1-.2 0-.3.1-.4.1l-.1.1s0 .1.1.2c0 .1 0 .2.1.3-.1.4-.3.8-.5 1.3s-.5 1.1-.8 1.6l-.3.7c-.1.4-.2.7-.3 1.1-.1.4-.1.7-.1 1.1v.4l-.2.6.2.7c0 .7.1 1.4.1 2.1.1.7.2 1.5.4 2.2 0 0 0 .1-.1.2 0 .1-.1.1-.1.1 0 .1 0 .1.1.2s.2.1.3.2l.4.9c.1.1.3.3.3.5l.3.6.6.3c.2.1.5.2.9.3h.1c.4.1.6.1.8.1.1 0 .2 0 .3-.1.9 1.1 1 1 1 1m-53.8-2.5l.4-.4c.6-.7 1.5-1.7 2.6-2.9 3.1-3.6 5-5.5 5.6-5.7l.6-.2.6-.4.7-.2.4.1.4.1c.6.4 1 .8 1.2 1.1.2.3.3.7.3 1.1 0 .3 0 .5-.1.7-.1.2-.1.5-.2.8l-.1 1c-.1.4-.2.8-.3 1.1l-.3.9-.4.6v.5c-.2.5-.5 1-.7 1.6-.2.6-.5 1.4-.9 2.5l-.3.2s0 .1.1.1c0 .1.1.3.1.4 0 .2-.1.4-.3.6-.2.2-.3.5-.3.7v.2l1.2-1.1c.2-.4.5-.7.8-1.1.3-.4.7-.7 1.1-1.1l.4-.2.2-.3.1-.3c.1-.2.2-.4.4-.5.1-.2.2-.3.4-.4l.9-.5.4-.7c1-1 2-1.8 2.8-2.2.8-.5 1.6-.7 2.4-.7.6 0 1 .1 1.3.3.3.2.6.5.7.8l.6.6c.1.3.4.8.7 1.5.3.7.6 1.2.7 1.5l-.2.7c.2.1.5.5.8 1.2.3.6.6.9 1 .9.1 0 .2 0 .3-.1.1 0 .3-.1.5-.1l.2-.1.2-.4.7-.5.5-.5c.7-.2 1.5-.6 2.3-1.2.9-.6 1.5-1 1.8-1 .2 0 .3 0 .4.1.1.1.1.2.1.5 0 0 0 .1-.1.3-.1.2-.1.5-.2.7l-.4.4c-.5.6-1.1 1.3-1.7 1.9l-2 2-.3.3-.5.3c-.1.4-.4.7-1 1-.1.1-.2.1-.2.2l-.4.4-1.2.5c-.2.1-.5.2-.7.3-.2.1-.3.1-.5.1-.7 0-1.4-.3-2.1-1-.7-.6-1.2-1.5-1.7-2.6l-.1-.6c-.4-.3-.7-.6-1-1-.3-.4-.6-.7-.9-1.2-.1-.1-.2-.1-.3-.1h-.3c-.2 0-.5.1-.8.3-.3.2-.8.6-1.6 1.3l-.6.2-.5.7c-.2.3-.4.5-.7.7-.2.2-.5.3-.8.4l-.8 1.2c-1.2 1.3-2 2.3-2.6 2.9-.6.7-1.1 1.1-1.5 1.5-.4.6-.9 1-1.4 1.2-.5.2-1.1.3-1.8.3-.4 0-.7-.1-.8-.2-.2-.1-.3-.3-.3-.7l.1-.8-.2-.3.1-.6c.6-1.9 1-3.3 1.2-4.2.3-1 .4-1.5.4-1.7 0 0 0-.1.1-.3.1-.2.1-.4.2-.6l.3-.5c0-.1-.1-.2-.1-.2v-.2c0-.1.1-.5.3-1.1.2-.6.3-1 .3-1.4 0-.1-.1-.2-.1-.2-.1-.1-.2-.1-.4-.1-.7 0-1.2.3-1.6.8-.4.6-.7.9-.8.9l-.8 1-.6.6-.4.1-.2.2-.2.3-.2.3c-.2.1-.3.2-.4.2-.1.1-.1.1-.1.2l-.6.5c-1.4 1.1-2.5 1.9-3.4 2.5-.8.6-1.4.8-1.6.8-.2 0-.3 0-.4-.2-.1-.1-.2-.3-.2-.4 0-.2.1-.4.2-.5.1-.2.3-.3.6-.5v-.5c.8-1 1.6-1.8 2.3-2.5.7-.7 1.1-1 1.2-1 0 0 0-.1-.1-.2 0-.1 0-.1.1-.1h.1c.1 0 .2 0 .2-.1.1-.1.1-.3.2-.5l.4-.3z" class="st2"/><path id="path14" fill="#9d9fa2" fill-rule="evenodd" d="M179.4 10.219c31.1 0 56.3 25.2 56.3 56.3 0 31.1-25.2 56.3-56.3 56.3-31.1 0-56.3-25.2-56.3-56.3 0-31.1 25.2-56.3 56.3-56.3" clip-rule="evenodd"/><path id="path16" fill="#ed1d24" fill-rule="evenodd" d="M185.4 64.519v-33.8h-33.8l10.9 10.4c-13.2 15.7-26.5 31.6-39.1 47.8-5.4 7-26.6 32.5-17.9 42.1 7.5 8.1 37.9-9.3 45.6-14.1-5.5 2.3-34.5 16.1-39.9 9.6-8.5-10.1 56.2-65.1 64-72.4z" class="st4" clip-rule="evenodd"/><path id="path18" fill="#00598e" fill-rule="evenodd" d="M175.3 68.519v33.8h33.8l-11-10.3c13.2-15.7 26.4-31.6 39-47.8 5.4-7 26.6-32.5 17.9-42.1-7.5-8.1-37.9 9.3-45.6 14.1 5.5-2.3 34.5-16.1 39.9-9.6 8.4 10.1-56.3 65.1-64 72.4z" class="st5" clip-rule="evenodd"/><path id="path20" fill="#00598e" fill-rule="evenodd" d="M277.3 173.619h18.2v78.5h34.4v13.3h-52.6zm-72.4 0h19.3l18.6 44.6 9.1 26.7c-1.2-14.7-2-25.1-2.5-31.4-.4-6.3-.7-12.8-.7-19.4v-20.5h18.5v91.8h-19l-19.7-45-8.1-24.5c.7 8.9 1.3 17.5 1.9 25.9.6 8.4.9 15.2.9 20.3v23.3H205v-91.8zm-29.5 28c0-10.8-3.7-16.2-11-16.2-2.7 0-5.1.8-7.1 2.4-2 1.6-3.1 3.7-3.2 6.4.4 4.3 2.6 7.8 6.7 10.5 5 3 10.1 6.1 15.3 9.3 5.2 3.2 9.6 6.6 13.1 10.2 3.5 3.6 5.5 7.6 6 12 1.2 10.3-.8 17.9-6 23-5.2 5.1-11.9 7.8-20.1 8.2-10.4.3-18.7-1.5-24.8-5.6-6.1-4-9.2-11.6-9.3-22.7.4-2.8.5-4.8.5-6.2h18.4c0 .8 0 1.4-.1 1.8-.1.4-.1 1-.1 1.7-.1.7-.1 1.4-.2 2 0 10 4 15.2 11.9 15.5 2.2-.2 4-.6 5.4-1 1.5-.4 2.8-1.6 3.9-3.5s1.7-4 1.7-6.3c0-5.2-3-9.7-8.9-13.5-4.4-2.6-8.6-5.2-12.7-7.8-4.1-2.6-7.4-5.1-10.2-7.4-2.7-2.3-5-5.2-6.8-8.6-1.9-3.4-2.6-7.3-2.4-11.7.8-14.2 9.5-21.7 26.1-22.5 20.8-.7 31.2 8.3 31.2 27v2.9h-17.3zm-78.4 22.6h-9.4v28h10c6.8 0 10.4-4.7 10.8-14.2.1-9.2-3.7-13.8-11.4-13.8m-9.5-37v23.7h6.4c4.4 0 7.5-.9 9.5-2.6 1.9-1.7 2.9-5 2.9-9.9-.1-5-1-8.1-2.7-9.3-1.7-1.2-4.9-1.9-9.6-1.9zm-18.5-13.6h31.9c15.5 0 23.4 7.2 23.8 21.7.1 6.2-.9 10.9-3 14-2.1 3.2-5.1 5.5-9.3 7 9.6 1.3 14.6 8.5 14.8 21.6 0 4.9-.8 9.4-2.5 13.7-1.7 4.2-4.3 7.6-8 10.1-3.6 2.5-8.2 3.7-13.7 3.7H68.9v-91.8z" class="st5" clip-rule="evenodd"/><path id="path22" fill="#ed1d24" fill-rule="evenodd" d="M267.8 379.219c2.7-15.1 6.9-36.8 26.5-38.9l-1.3 9.7c-10.9-1.1-15.3 9.1-17.3 23.4 5.4-4.7 10.6-7.9 15.6-7.7l-.3 6.9c-9.8.8-17.8 6.1-19.5 15l-3.9 23.6-4.2 2.7 2.6-27-2-.1z" class="st4" clip-rule="evenodd"/><path id="path24" fill="#ed1d24" fill-rule="evenodd" d="M313.3 352.619c-9.9 9.5-19.4 20.7-28.8 32.2-.2 1 0 2.4.7 3l4.6-4.9c1.5 4.6 3.3 5.4 5.2 2.3l12.1-13c.8 6.6 3.8 6.8 8.5 1.7l13-14.2c1.8 3.4-.6 7-5.2 10.6.1 5.2 0 8.9 1.2 9.3l19.9-20.4-1.9 10.6c0 1.9 3.3 1.6 6.1 0l10-9.3c3.4 8.2 12.5 1.7 25.3-10.8 3.3-.8 5.1-.1 3.8 3.8l-2.6 5.1c.2 1.9 2.3 2.1 6.2.7l12.9-8.3-.7-1.1-10.5 4.6c2.1-5.5 1.9-8.8-1.4-10-5.1-1.5-6.6-1.1-11.2 3.4l-10.6 9.9c-5.2 1.7-6.8.1-3.4-4.1 3.2-1.3 6.4-3.1 7.6-5.5 2.4-3.5-.2-7.2-4.8-4.9-4.9 3.6-8.1 7.9-10.3 12.4l-7.9 8.1-1.6-1.4 7.4-18.8 3-.7 1-9.4c-2.7-.8-5.2 1.6-7.7 6.2l-12.7 1.3-1 5.2 10.3-.9c-4.4 7.2-9.4 14.2-15.9 20.5.9-5.3 4.2-15.6 3-16.1h-3.4l-16.5 18.7c-2.1 2.4-3.3 2.3-3.6-.2l.7-4.8c-.5-1.5-1.5-1.1-3.4.5l-7.3 8.3c-.7.1-1.1-.4-1.2-.9l14.2-16.9c1-2-.6-3.3-3.1-1.8" class="st4" clip-rule="evenodd"/></svg>